<svg xmlns="http://www.w3.org/2000/svg" xml:space="preserve" id="kfw_logo_320-2x_svg__Ebene_1" x="0" y="0" viewBox="0 0 374 78" class="h-[2.8rem] cursor-pointer" alt="Logo der KfW - Bank aus Verantwortung"><style>.kfw_logo_320-2x_svg__st1{fill:#1b618c}</style><path id="kfw_logo_320-2x_svg__Ebene_2" fill-opacity="0" d="M.3-1h374v78H.3z" style="fill: rgb(255, 255, 255);"></path><g id="kfw_logo_320-2x_svg__Ebene_1-2_1_"><path d="M248 51.3c.1 0 .1-.1.1-.2.8-3.2 7.6-26.8 10.1-35.5.2-.6.7-2.5.8-2.7.3-.9 1.1-1.5 2-1.5.4-.1.9-.1 1.3-.1h4.9c.5 0 .9 0 1.4.2 1.3.4 2 1.7 1.6 3-1 3.8-16.5 52.3-16.8 52.9-.5 1.1-1.6 1.8-2.9 1.8h-5.4c-.3 0-.5 0-.8-.1-.8-.2-1.5-.7-1.9-1.4s-.8-1.4-1-2.2c0 0-16-50.6-16.2-51-.4-1.2.3-2.6 1.5-3 .4-.1.8-.2 1.2-.2h5.8c.4 0 .7 0 1.1.1.6.1 1.2.5 1.5 1.1.2.4 11.7 38.6 11.7 38.8M158.6 26.4c0-1.7.2-3.4.5-5 .5-2.2 1.5-4.3 3-6 1.6-1.8 3.6-3.1 5.9-3.6 1.2-.3 2.3-.5 3.5-.5h17.8c.5 0 1 .1 1.4.2 1 .2 1.8 1 2.1 2 .2.6.3 1.3.3 1.9V19q0 1.05-.3 2.1c-.3.9-1 1.5-1.9 1.7-.5.1-1 .2-1.5.2h-13.8c-1.7-.1-3.3.9-4.1 2.4q-.6 1.05-.6 2.1V65c0 .6 0 1.2-.1 1.8-.1 1.2-1.1 2.2-2.3 2.4-.6.1-1.2.2-1.8.2h-4.4q-.9 0-1.8-.3c-.8-.3-1.4-1-1.6-1.8-.1-.5-.2-1-.2-1.5V64c-.1-6.5-.1-31.3-.1-37.6M220.6 51c.4-2.1 1-4.1 1.5-6.1.6-2.4 1.3-4.8 2-7.2.1-.4.4-.9.7-1.2.4-.4.9-.6 1.4-.5.2 0 .4.1.5.2.5.2.8.6 1 1.1 1 3.2 3.7 11 3.7 11 .4.7.5 1.5.3 2.3-.1.5-5.4 16.8-5.5 17.1-.3.7-1 1.3-1.7 1.4-.6.1-1.3.2-1.9.2h-4.7c-.3 0-.7-.1-1-.1-.8-.2-1.5-.6-1.9-1.3s-.8-1.4-1-2.2l-3-9.4L199.3 19c-.3-1-.6-1.8-.9-2.8-.2-.7-.4-1.4-.5-2.1-.2-.8.1-1.7.8-2.2.5-.3 1-.5 1.6-.6.4-.1.7-.1 1.1-.1h4.8c.4 0 .9 0 1.3.1.6.1 1.2.5 1.6 1 .5.7.8 1.4 1.1 2.2 2.5 8.5 5 17 7.4 25.5 1 3.4 1.9 6.9 2.9 10.3zv.1zM141.5 69.3c-.5 0-1-.1-1.4-.2-1-.2-1.9-.8-2.5-1.7-.4-.6-.8-1.2-1.2-1.7l-13.6-19.2c-.5-.6-1-1.2-1.4-1.8-.7-1-1.2-2.1-1.3-3.3-.1-.8-.1-1.7-.1-2.5.1-1.5.7-2.9 1.7-4 .9-1.1 1.8-2.2 2.6-3.4l11.5-16.1c.4-.6.8-1.1 1.2-1.6.6-.8 1.4-1.5 2.3-1.9.6-.3 1.3-.4 2-.4h6.3c.5 0 1 .1 1.5.2.8.2 1.4.9 1.4 1.7-.1 1.1-.4 2.2-1 3.2-.1.1-.1.2-.2.3L133 39.2c-.1.2-.2.4-.4.4s-.1.1 0 .2l.1.2 17.6 24.3c.1.2.3.4.5.6.7.8 1 1.9.8 2.9-.1.5-.4.9-.9 1.1q-.6.3-1.2.3zM104.3 15.7c0-.7 0-1.3.2-2 .2-1 .9-1.7 1.9-2 .6-.2 1.2-.3 1.8-.4h4.3c.7 0 1.3.1 1.9.3.9.3 1.6 1 1.9 1.9.1.5.2.9.2 1.4v49.9c0 .7 0 1.3-.2 2-.2 1-.9 1.7-1.9 2-.4.2-.9.3-1.4.4q-2.7.15-5.4 0c-.5 0-.9-.1-1.4-.2-.9-.2-1.6-1-1.8-1.9-.1-.7-.2-1.4-.2-2.1V15.7z" class="kfw_logo_320-2x_svg__st1"></path><path d="M182.3 36h3.7c.5 0 1 .1 1.4.2.8.2 1.5.8 1.8 1.6q.3.75.3 1.5v4.4c0 .5-.1.9-.2 1.4-.3 1.1-1.1 1.8-2.2 2-.4.1-.8.1-1.2.1h-7.1c-.5 0-1-.1-1.5-.2-1-.2-1.7-.9-2-1.8-.2-.5-.2-.9-.3-1.4q-.15-2.25 0-4.5c0-.4.1-.8.2-1.1.2-1.1 1-1.9 2.1-2.1.4-.1.8-.1 1.3-.1zM220.6 51v.1h-.1s0-.1.1-.1" class="kfw_logo_320-2x_svg__st1"></path></g></svg>