<svg xmlns="http://www.w3.org/2000/svg" xml:space="preserve" id="kfw_logo_1280-2x_svg__Ebene_1" x="0" y="0" viewBox="0 0 245 139">
    <style>.kfw_logo_1280-2x_svg__st1{fill:#1b618c}.kfw_logo_1280-2x_svg__st2{fill:#4e6e61}</style>
    <path id="kfw_logo_1280-2x_svg__Ebene_2" fill-opacity="0" d="M0 0h270v139H0z"
          style="fill: rgb(255, 255, 255);"></path>
    <g id="kfw_logo_1280-2x_svg__Ebene_1_1_">
        <path d="M175.4 68.5v.2h-.1c-.1-.1-.1-.2-.1-.3zM175.3 68.7h.1s0 .1-.1.1 0-.1 0-.1" class="kfw_logo_1280-2x_svg__st1"></path>
        <path d="M13.9 108.8h5.5c.7 0 1.4.1 2 .3.5.2 1 .4 1.4.8.4.3.7.8.8 1.2.2.5.3 1 .3 1.6s-.2 1.3-.5 1.9c-.4.7-.9 1.2-1.6 1.5.5.1.9.4 1.2.7s.6.6.8 1 .3.7.4 1.1c.1.3.1.7.1 1 0 .6-.1 1.2-.4 1.7-.2.5-.6 1-1 1.3-.4.4-.9.7-1.4.8-.5.2-1.1.3-1.6.3h-6.1v-15.2zm8.1 4.1c0-.7-.2-1.4-.7-1.9-.6-.5-1.5-.8-2.3-.7h-3.2v5.2H19c.8.1 1.6-.2 2.2-.7.5-.6.8-1.2.8-1.9m.4 6.9c0-.4-.1-.7-.2-1.1-.1-.3-.3-.7-.6-.9-.3-.3-.6-.5-1-.6-.4-.2-.9-.2-1.3-.2h-3.6v5.8h3.6c.5 0 1-.1 1.4-.2s.7-.3 1-.6c.2-.3.4-.6.5-.9.2-.6.2-1 .2-1.3M35.3 122.8h1.5l.1 1.1c-.3.1-.6.3-.9.3-.3.1-.7.1-1 .1-.4 0-.7-.1-1-.3-.3-.3-.4-.7-.4-1.1-.7.6-1.4 1-2.3 1.2-.3.1-.6.1-.9.2h-.6c-.5 0-1.1-.1-1.5-.3s-.7-.4-1-.8c-.2-.3-.4-.6-.5-1-.1-.3-.1-.7-.1-1 0-.9.3-1.7 1-2.3.9-.7 2-1 3.1-1l2.8-.2v-.7c.1-.7-.1-1.4-.5-1.9-.5-.4-1.2-.6-1.9-.6-.6 0-1.1.1-1.7.2s-1.1.3-1.7.4l-.4-1.2c.7-.3 1.4-.5 2.1-.7.7-.1 1.4-.2 2.1-.2 1-.1 1.9.2 2.7.8.7.7 1.1 1.8 1 2.8zm-4.5-3.7c-.6 0-1.2.2-1.6.6-.4.3-.6.8-.5 1.3 0 .5.1 1 .5 1.4s1 .5 1.5.5 1-.1 1.5-.4c.6-.3 1.1-.6 1.5-1.1v-2.6zM45.9 124.1v-7.2c0-.3 0-.7-.1-1 0-.3-.1-.5-.2-.8-.1-.2-.3-.4-.6-.5s-.7-.2-1-.2c-.6 0-1.2.1-1.7.3-.6.2-1.1.4-1.6.7v8.6h-1.8v-10.9h1.8v.9h.1c.6-.4 1.3-.7 2-.9q.9-.3 1.8-.3t1.8.3c.4.2.7.5 1 .8.2.3.4.7.4 1.1.1.4.1.8.1 1.2v7.7zM52.2 117.7c.7-.8 1.5-1.5 2.2-2.3.7-.7 1.5-1.5 2.2-2.3h2.1c-.7.7-1.4 1.4-2.1 2.2l-2.1 2.2c.1.2.2.3.4.5.1.1.3.3.4.5l3.8 5.7h-2c-.6-.9-1.2-1.8-1.8-2.8l-1.8-2.8-1.2 1.2v4.3h-1.9v-15.9h1.8v6.9l-.1 2.5zM74.9 122.8h1.5l.1 1.1c-.3.1-.6.3-.9.3-.3.1-.7.1-1 .1-.4 0-.7-.1-1-.3-.3-.3-.4-.7-.4-1.1-.7.6-1.4 1-2.3 1.2-.3.1-.6.1-.9.2h-.6c-.5 0-1.1-.1-1.6-.3-.4-.2-.7-.4-1-.8-.2-.3-.4-.6-.5-1-.1-.3-.1-.7-.2-1 0-.9.3-1.7 1-2.3.9-.7 2-1 3.1-1l2.8-.2v-.7c.1-.7-.1-1.4-.5-1.9-.5-.4-1.2-.6-1.9-.6-.6 0-1.1.1-1.7.2s-1.1.3-1.7.4l-.4-1.2c.7-.3 1.4-.5 2.1-.7.7-.1 1.4-.2 2.2-.2 1-.1 1.9.2 2.7.8.7.7 1.1 1.8 1 2.8zm-4.6-3.7c-.6 0-1.2.2-1.7.6-.4.3-.6.8-.5 1.3 0 .5.1 1 .5 1.4s1 .5 1.5.5 1-.1 1.5-.4 1-.6 1.5-1.1v-2.6zM81.5 124.4c-.6 0-1.2-.1-1.7-.3-.4-.2-.7-.5-.9-.8s-.3-.7-.4-1.1-.1-.8-.1-1.2v-7.7h1.8v7.2c0 .3 0 .7.1 1 0 .3.1.5.2.8.1.2.3.4.6.5s.7.2 1 .2q.75 0 1.5-.3c.6-.2 1.2-.6 1.7-1.1v-8.3h1.8v10.9h-1.8V123c-.6.5-1.4 1-2.2 1.2-.3.1-.6.2-.9.2-.2-.1-.4 0-.7 0M89.8 122.2c.6.3 1.3.5 1.9.6.5.1 1 .1 1.4.1.3 0 .7 0 1-.1s.5-.1.8-.3c.2-.1.4-.3.5-.5.1-.3.2-.5.2-.8s-.1-.5-.2-.7-.3-.4-.5-.5c-.2-.2-.5-.3-.8-.4l-.9-.3-1.4-.5q-.6-.15-1.2-.6c-.3-.2-.6-.5-.8-.8-.2-.4-.3-.8-.3-1.3s.1-.9.3-1.4c.2-.4.5-.7.8-1q.6-.45 1.2-.6c.5-.1 1-.2 1.5-.2h.8c.3 0 .6 0 .9.1s.6.1.9.2.5.2.8.4l-.6 1.3c-.5-.2-1-.4-1.5-.5-.4-.1-.8-.1-1.2-.1-.3 0-.6 0-.8.1-.2 0-.5.1-.7.3-.2.1-.4.3-.5.5s-.2.5-.2.8c0 .2.1.5.2.6.2.2.4.3.6.5.2.1.5.3.8.3l.7.2 1.4.5c.4.1.8.4 1.2.6s.6.6.9.9c.2.4.3.9.3 1.4s-.1 1-.3 1.4-.5.7-.9 1-.9.5-1.4.6c-.6.1-1.1.2-1.7.2-.3 0-.7 0-1-.1-.4 0-.7-.1-1-.2s-.7-.1-1-.3c-.3-.1-.6-.2-.8-.4zM110.7 122.2l.9-3.1 3-10.2h2l-4.8 15.3h-2.2l-4.8-15.3h2l3.1 10.2.9 3.1zM122 113q.9 0 1.8.3c.5.2.9.4 1.2.7s.6.7.8 1.1.3.8.4 1.2.1.7.2 1.1v1.6h-7.3c0 .5 0 1 .1 1.4s.2.9.5 1.2c.3.4.6.7 1 .8q.75.3 1.5.3c.6 0 1.2-.1 1.8-.2.6-.2 1.2-.3 1.7-.6l.4 1.2c-.6.3-1.3.6-2 .8s-1.4.3-2.1.2c-.8 0-1.6-.1-2.4-.4q-.9-.45-1.5-1.2c-.4-.5-.6-1.1-.8-1.8-.1-.7-.2-1.4-.2-2.2 0-.4 0-.7.1-1.1q0-.6.3-1.2c.1-.4.3-.8.5-1.2s.5-.8.9-1.1.8-.6 1.3-.8c.6-.1 1.2-.2 1.8-.1m0 1.3c-.5 0-.9.1-1.3.3-.3.2-.7.5-.9.8s-.4.7-.5 1.1-.2.9-.2 1.3h5.6c0-.5 0-1-.1-1.4s-.2-.8-.4-1.1-.5-.6-.8-.7c-.5-.2-.9-.3-1.4-.3M130.8 114.7c.3-.2.6-.5.9-.7s.7-.4 1-.6.7-.3 1-.4.6-.2.9-.2c.1 0 .3 0 .4.1s.2.3.2.4 0 .2-.1.4l-.1.5c-.1.2-.1.3-.2.5-.1.1-.2.3-.2.4l-1.9.2-1.9.2v8.5H129v-10.9h1.8l-.1 1.4zM144.9 122.8h1.5l.1 1.1c-.3.1-.6.3-.9.3-.3.1-.7.1-1 .1-.4 0-.7-.1-1-.3-.3-.3-.4-.7-.4-1.1-.7.6-1.4 1-2.3 1.2-.3.1-.6.1-.9.2h-.6c-.5 0-1.1-.1-1.6-.3-.4-.2-.7-.4-1-.8-.2-.3-.4-.6-.5-1-.1-.3-.1-.7-.1-1 0-.9.3-1.7 1-2.3.9-.7 2-1 3.1-1l2.8-.2v-.7c.1-.7-.1-1.4-.5-1.9-.5-.4-1.2-.6-1.9-.6-.6 0-1.1.1-1.7.2s-1.1.3-1.7.4l-.4-1.2c.7-.3 1.4-.5 2.1-.7.7-.1 1.4-.2 2.1-.2 1-.1 1.9.2 2.7.8.7.7 1.1 1.8 1 2.8zm-4.5-3.7c-.6 0-1.2.2-1.7.6-.4.3-.6.8-.5 1.3 0 .5.1 1 .5 1.4s1 .5 1.5.5 1-.1 1.5-.4c.6-.3 1.1-.6 1.5-1.1v-2.6zM155.5 124.1v-7.2c0-.3 0-.7-.1-1 0-.3-.1-.5-.2-.8-.1-.2-.3-.4-.6-.5s-.7-.2-1-.2c-.6 0-1.2.1-1.7.3-.6.2-1.1.4-1.6.7v8.6h-1.8v-10.9h1.8v.9h.1c.6-.4 1.3-.7 2-.9q.9-.3 1.8-.3t1.8.3c.4.2.7.5 1 .8.2.3.4.7.4 1.1.1.4.1.8.1 1.2v7.7zM162.5 110.4v2.8h3.3v1.3h-3.3v6.4c0 .4.1.9.3 1.3.3.4.8.6 1.2.5.7 0 1.4-.2 2.1-.4l.3 1.2c-.4.2-.9.4-1.3.4-.5.1-.9.2-1.4.2q-3 0-3-2.7v-7h-1.5v-1l1.7-.5.6-2.4zM178.3 122.3l.8-3.3 1.6-5.8h1.8l-3.2 10.9h-2l-1.6-5.1-1.1-3.9h-.1l-1 3.9-1.4 5.1h-2l-3.2-10.9h1.8l1.5 5.6.9 3.5h.1l.9-3.6 1.6-5.5h1.8l1.8 5.8.9 3.3zM193.2 118.7c0 .7-.1 1.4-.2 2.1-.1.6-.4 1.3-.8 1.8s-.9 1-1.5 1.3c-.7.3-1.6.5-2.4.5s-1.5-.1-2.2-.5c-.6-.3-1.1-.7-1.4-1.2-.4-.5-.6-1.1-.8-1.8s-.2-1.4-.2-2.1q0-1.05.3-2.1t.9-1.8c.4-.5.9-1 1.5-1.3.7-.3 1.5-.5 2.3-.5s1.6.1 2.3.5c.6.3 1.1.7 1.5 1.3s.6 1.2.8 1.8c-.2.6-.1 1.3-.1 2m-1.9 0c0-.5 0-1-.1-1.5s-.2-1-.4-1.4-.5-.7-.9-1-.9-.4-1.4-.4-1.1.1-1.5.4-.7.6-.9 1-.4.9-.5 1.4-.1 1-.1 1.5 0 1.1.1 1.6.2.9.4 1.3q.3.6.9.9c.5.3 1 .4 1.6.3.5 0 1-.1 1.4-.4s.7-.6.9-1 .4-.9.4-1.3.1-.9.1-1.4M197.6 114.7c.3-.2.6-.5.9-.7s.7-.4 1-.6.7-.3 1-.4.6-.2.9-.2c.1 0 .3 0 .4.1s.2.3.2.4 0 .2-.1.4l-.1.5c-.1.2-.1.3-.2.5-.1.1-.2.3-.2.4l-1.9.2-1.9.2v8.5h-1.8v-10.9h1.8l-.1 1.4zM206 110.4v2.8h3.3v1.3H206v6.4c0 .4.1.9.3 1.3.3.4.8.6 1.2.5.7 0 1.4-.2 2.1-.4l.3 1.2c-.4.2-.9.4-1.3.4-.5.1-.9.2-1.4.2q-3 0-3-2.7v-7h-1.6v-1l1.7-.5.6-2.4zM214.5 124.4c-.6 0-1.2-.1-1.7-.3-.4-.2-.7-.5-.9-.8s-.3-.7-.4-1.1-.1-.8-.1-1.2v-7.7h1.8v7.2c0 .3 0 .7.1 1 0 .3.1.5.2.8.1.2.3.4.6.5s.7.2 1 .2q.75 0 1.5-.3c.6-.2 1.2-.6 1.7-1.1v-8.3h1.9v10.9h-1.8V123c-.6.5-1.3 1-2.1 1.2-.3.1-.6.2-.9.2zM229.7 124.1v-7.2c0-.3 0-.7-.1-1 0-.3-.1-.5-.2-.8-.1-.2-.3-.4-.6-.5s-.7-.2-1-.2c-.6 0-1.2.1-1.7.3-.6.2-1.1.4-1.6.7v8.6h-1.8v-10.9h1.8v.9h.1c.6-.4 1.3-.7 2-.9q.9-.3 1.8-.3t1.8.3c.4.2.7.5 1 .8.2.3.4.7.4 1.1.1.4.1.8.1 1.2v7.7zM235.6 119.7c-.4-.2-.8-.6-1-1-.3-.6-.5-1.2-.4-1.8 0-.6.1-1.2.4-1.8.2-.5.6-.9 1-1.2s.9-.5 1.4-.7c.5-.1 1-.2 1.6-.2.4 0 .7 0 1.1.1.3 0 .7.1 1 .2h3.5v1.2h-1.7v.1c.3.3.5.6.6 1s.2.9.2 1.3c0 1.1-.5 2.1-1.3 2.8-.4.3-.9.6-1.4.7-.6.2-1.2.3-1.8.2h-1.2c-.4 0-.9 0-1.3.2-.3.1-.5.4-.5.7q0 .3.3.6c.3.1.5.2.8.2h2.9c1.1-.1 2.2.2 3.1.8 1.1 1 1.4 2.6.7 3.9-.3.5-.6.8-1.1 1.1s-1.1.6-1.7.7c-.7.2-1.5.3-2.2.2-.8 0-1.6-.1-2.3-.3-.5-.1-1-.4-1.4-.7-.3-.3-.6-.6-.7-1s-.2-.8-.2-1.2c0-.6.2-1.1.5-1.6.3-.4.6-.7 1-.9-.4-.1-.7-.3-1-.5-.2-.3-.4-.7-.4-1.1 0-.3 0-.6.1-.8s.2-.4.4-.6c.2-.1.4-.3.6-.3.1-.2.3-.2.4-.3m1.3 3.8c-.2.1-.3.1-.5.3-.2.1-.3.3-.4.5l-.3.6c-.1.2-.1.4-.1.6 0 .3 0 .6.1.8.1.3.3.5.5.7.3.2.6.4 1 .5.5.1 1.1.2 1.6.2.8.1 1.7-.2 2.4-.6.5-.3.9-.9.8-1.6 0-.2 0-.5-.1-.7s-.2-.5-.4-.7-.5-.4-.8-.5c-.4-.1-.9-.2-1.3-.2h-2.5zm4.5-6.7c0-.3 0-.6-.1-.9s-.2-.6-.4-.8c-.2-.3-.5-.5-.8-.6-.4-.2-.8-.2-1.3-.2-.7-.1-1.4.2-2 .7-.5.5-.7 1.2-.7 1.8q0 1.05.6 1.8c.5.5 1.1.7 1.7.7.4 0 .8 0 1.1-.2.3-.1.6-.2.9-.4s.5-.5.6-.8c.3-.4.4-.7.4-1.1"
              class="kfw_logo_1280-2x_svg__st2"></path>
        <path d="M213.9 68.8c.1 0 .1-.1.1-.2 1.1-4.4 10.6-37.4 14.2-49.6.3-.9.9-3.5 1.1-3.8.4-1.2 1.5-2.1 2.8-2.2.6-.1 1.2-.1 1.8-.1h6.9c.7 0 1.4.1 2 .3 1.8.5 2.8 2.4 2.2 4.2-1.4 5.3-23 73.1-23.4 73.9-.8 1.5-2.3 2.5-4 2.6H210c-.4 0-.8-.1-1.1-.1-1.1-.2-2.2-.9-2.8-1.9s-1-2-1.4-3.1c0 0-22.4-70.7-22.6-71.3-.6-1.7.4-3.6 2.1-4.2.5-.2 1.1-.3 1.7-.3h8.2c.5 0 1 .1 1.5.2.9.2 1.7.8 2 1.6.2.4 16.2 53.7 16.3 54M88.9 34.1c0-2.4.2-4.7.8-7 .7-3.1 2.1-5.9 4.1-8.3 2.2-2.5 5.1-4.3 8.3-5.1 1.6-.4 3.3-.7 5-.7H132c.7 0 1.3.1 2 .2 1.4.3 2.6 1.4 2.9 2.8.2.9.4 1.8.4 2.7v5.1c0 1-.1 2-.5 3-.4 1.2-1.4 2.1-2.7 2.4q-1.05.3-2.1.3h-19.3c-2.4-.1-4.6 1.2-5.8 3.3q-.75 1.35-.9 3V88c0 .8 0 1.6-.2 2.4-.2 1.7-1.5 3.1-3.2 3.3-.8.2-1.7.2-2.5.2h-6.2c-.8 0-1.6-.2-2.4-.5-1.1-.4-1.9-1.4-2.2-2.5-.2-.7-.3-1.4-.3-2.2v-2.5c-.1-8.6-.1-43.4-.1-52.1M175.5 68.5c.5-2.9 1.4-5.7 2.1-8.6.9-3.3 1.9-6.7 2.8-10 .2-.6.5-1.2 1-1.7s1.2-.8 1.9-.8c.3 0 .5.1.8.3.7.3 1.2.9 1.4 1.5 1.3 4.4 5.1 15.5 5.1 15.5.5 1 .6 2.2.4 3.2-.2.7-7.5 23.4-7.7 23.8-.5 1-1.4 1.7-2.5 1.9-.9.2-1.8.3-2.6.2h-6.5c-.5 0-.9-.1-1.4-.2-1.1-.2-2.1-.9-2.7-1.8s-1-1.9-1.4-3l-4.2-13-16.3-52c-.4-1.4-.9-2.6-1.2-3.9-.2-1-.6-1.9-.7-2.9-.3-1.2.2-2.4 1.2-3.1.6-.5 1.4-.8 2.2-.8.5-.1 1-.1 1.5-.1h6.8c.6 0 1.2.1 1.8.2.9.1 1.7.6 2.2 1.4.7 1 1.2 2 1.5 3.1 3.5 11.9 7 23.8 10.4 35.7 1.4 4.8 2.7 9.6 4 14.4l.2.6c0 .1.1.2.1.3zM65 94c-.7 0-1.3-.1-2-.3-1.4-.3-2.7-1.2-3.4-2.5-.5-.8-1.1-1.6-1.6-2.4L39 62.1c-.6-.9-1.3-1.7-2-2.5-1-1.4-1.6-2.9-1.8-4.6-.1-1.2-.1-2.3-.1-3.5.1-2.1 1-4 2.4-5.5 1.3-1.5 2.6-3.1 3.7-4.8l16-22.5c.5-.8 1.1-1.5 1.7-2.3.8-1.2 1.9-2.1 3.2-2.7.9-.4 1.9-.6 2.9-.6h8.8q1.05 0 2.1.3c1.1.2 2 1.2 1.9 2.4-.1 1.6-.5 3.1-1.3 4.4-.1.1-.2.3-.3.4L53.1 52c-.2.2-.3.5-.6.6-.1 0-.1.1 0 .2 0 .1.1.2.2.2l24.6 34c.2.3.4.5.6.8.9 1.1 1.3 2.6 1 4-.1.7-.6 1.3-1.3 1.6-.5.2-1.1.4-1.7.4-.5.1-9.2.2-10.9.2M13.1 19.1c0-.9.1-1.9.3-2.8.3-1.4 1.3-2.5 2.7-2.9.8-.3 1.6-.4 2.5-.4h6c.9 0 1.8.2 2.7.4 1.3.4 2.3 1.4 2.6 2.7.2.7.3 1.3.3 2v69.80000000000001c0 .9-.1 1.9-.3 2.8-.3 1.3-1.3 2.4-2.6 2.8-.6.3-1.3.4-1.9.5q-3.75.15-7.5 0-.9 0-1.8-.3c-1.3-.3-2.3-1.4-2.5-2.7-.2-1-.3-2-.2-3z"
              class="kfw_logo_1280-2x_svg__st1"></path>
        <path d="M122.1 47.5h5.2c.7 0 1.3.1 2 .3 1.1.3 2.1 1.1 2.5 2.2.3.7.4 1.4.5 2.2v2.6c0 1.2 0 2.5-.1 3.7-.1.7-.2 1.3-.4 1.9-.4 1.5-1.6 2.6-3.1 2.8-.6.1-1.2.2-1.8.2H117q-1.05 0-2.1-.3c-1.4-.3-2.4-1.3-2.8-2.6-.2-.6-.3-1.3-.4-2q-.15-3.15 0-6.3c0-.5.1-1 .3-1.6.3-1.5 1.6-2.7 3.1-2.9.6-.1 1.2-.2 1.8-.2zM175.5 68.5v.2h-.1c-.1-.1-.1-.2-.1-.3z"
              class="kfw_logo_1280-2x_svg__st1"></path>
    </g>
</svg>