<svg id="sb-tbalken-s-600x20_svg__Layer_1" xmlns="http://www.w3.org/2000/svg" viewBox="0 0 600 20"><defs><clipPath id="sb-tbalken-s-600x20_svg__clippath"><path class="sb-tbalken-s-600x20_svg__cls-2" d="M0 0h600v20H0z"></path></clipPath><style>.sb-tbalken-s-600x20_svg__cls-1{fill:#005a8c}.sb-tbalken-s-600x20_svg__cls-2{fill:#b7f9aa}</style></defs><path class="sb-tbalken-s-600x20_svg__cls-2" d="M0 0h600v20H0z"></path><g style="clip-path: url(&quot;#sb-tbalken-s-600x20_svg__clippath&quot;);"><path id="sb-tbalken-s-600x20_svg___x32_70.0:0" class="sb-tbalken-s-600x20_svg__cls-1" d="M266.67-3.33h6.67v6.67h-6.67z"></path><path id="sb-tbalken-s-600x20_svg___x32_73.3:3.3" class="sb-tbalken-s-600x20_svg__cls-1" d="M270.04.04h6.59v6.59h-6.59z"></path><path id="sb-tbalken-s-600x20_svg___x32_70.0:6.7" class="sb-tbalken-s-600x20_svg__cls-1" d="M266.67 3.33h6.67V10h-6.67z"></path><path id="sb-tbalken-s-600x20_svg___x32_73.3:10" class="sb-tbalken-s-600x20_svg__cls-1" d="M270.04 6.7h6.59v6.59h-6.59z"></path><path id="sb-tbalken-s-600x20_svg___x32_70.0:13.3" class="sb-tbalken-s-600x20_svg__cls-1" d="M266.67 10h6.67v6.67h-6.67z"></path><path id="sb-tbalken-s-600x20_svg___x32_73.3:16.7" class="sb-tbalken-s-600x20_svg__cls-1" d="M270.04 13.37h6.59v6.59h-6.59z"></path><path id="sb-tbalken-s-600x20_svg___x32_70.0:20" class="sb-tbalken-s-600x20_svg__cls-1" d="M266.67 16.67h6.67v6.67h-6.67z"></path><path id="sb-tbalken-s-600x20_svg___x32_76.7:0" class="sb-tbalken-s-600x20_svg__cls-1" d="M273.41-3.26h6.52v6.52h-6.52z"></path><path id="sb-tbalken-s-600x20_svg___x32_80.0:3.3" class="sb-tbalken-s-600x20_svg__cls-1" d="M276.78.11h6.44v6.44h-6.44z"></path><path id="sb-tbalken-s-600x20_svg___x32_76.7:6.7" class="sb-tbalken-s-600x20_svg__cls-1" d="M273.41 3.41h6.52v6.52h-6.52z"></path><path id="sb-tbalken-s-600x20_svg___x32_80.0:10" class="sb-tbalken-s-600x20_svg__cls-1" d="M276.78 6.78h6.44v6.44h-6.44z"></path><path id="sb-tbalken-s-600x20_svg___x32_76.7:13.3" class="sb-tbalken-s-600x20_svg__cls-1" d="M273.41 10.07h6.52v6.52h-6.52z"></path><path id="sb-tbalken-s-600x20_svg___x32_80.0:16.7" class="sb-tbalken-s-600x20_svg__cls-1" d="M276.78 13.44h6.44v6.44h-6.44z"></path><path id="sb-tbalken-s-600x20_svg___x32_76.7:20" class="sb-tbalken-s-600x20_svg__cls-1" d="M273.41 16.74h6.52v6.52h-6.52z"></path><path id="sb-tbalken-s-600x20_svg___x32_83.3:0" class="sb-tbalken-s-600x20_svg__cls-1" d="M280.15-3.19h6.37v6.37h-6.37z"></path><path id="sb-tbalken-s-600x20_svg___x32_86.7:3.3" class="sb-tbalken-s-600x20_svg__cls-1" d="M283.52.19h6.3v6.3h-6.3z"></path><path id="sb-tbalken-s-600x20_svg___x32_83.3:6.7" class="sb-tbalken-s-600x20_svg__cls-1" d="M280.15 3.48h6.37v6.37h-6.37z"></path><path id="sb-tbalken-s-600x20_svg___x32_86.7:10" class="sb-tbalken-s-600x20_svg__cls-1" d="M283.52 6.85h6.3v6.3h-6.3z"></path><path id="sb-tbalken-s-600x20_svg___x32_83.3:13.3" class="sb-tbalken-s-600x20_svg__cls-1" d="M280.15 10.15h6.37v6.37h-6.37z"></path><path id="sb-tbalken-s-600x20_svg___x32_86.7:16.7" class="sb-tbalken-s-600x20_svg__cls-1" d="M283.52 13.52h6.3v6.3h-6.3z"></path><path id="sb-tbalken-s-600x20_svg___x32_83.3:20" class="sb-tbalken-s-600x20_svg__cls-1" d="M280.15 16.81h6.37v6.37h-6.37z"></path><path id="sb-tbalken-s-600x20_svg___x32_90.0:0" class="sb-tbalken-s-600x20_svg__cls-1" d="M286.89-3.11h6.22v6.22h-6.22z"></path><path id="sb-tbalken-s-600x20_svg___x32_93.3:3.3" class="sb-tbalken-s-600x20_svg__cls-1" d="M290.26.26h6.15v6.15h-6.15z"></path><path id="sb-tbalken-s-600x20_svg___x32_90.0:6.7" class="sb-tbalken-s-600x20_svg__cls-1" d="M286.89 3.56h6.22v6.22h-6.22z"></path><path id="sb-tbalken-s-600x20_svg___x32_93.3:10" class="sb-tbalken-s-600x20_svg__cls-1" d="M290.26 6.93h6.15v6.15h-6.15z"></path><path id="sb-tbalken-s-600x20_svg___x32_90.0:13.3" class="sb-tbalken-s-600x20_svg__cls-1" d="M286.89 10.22h6.22v6.22h-6.22z"></path><path id="sb-tbalken-s-600x20_svg___x32_93.3:16.7" class="sb-tbalken-s-600x20_svg__cls-1" d="M290.26 13.59h6.15v6.15h-6.15z"></path><path id="sb-tbalken-s-600x20_svg___x32_90.0:20" class="sb-tbalken-s-600x20_svg__cls-1" d="M286.89 16.89h6.22v6.22h-6.22z"></path><path id="sb-tbalken-s-600x20_svg___x32_96.7:0" class="sb-tbalken-s-600x20_svg__cls-1" d="M293.63-3.04h6.07v6.07h-6.07z"></path><path id="sb-tbalken-s-600x20_svg___x33_00.0:3.3" class="sb-tbalken-s-600x20_svg__cls-1" d="M297 .33h6v6h-6z"></path><path id="sb-tbalken-s-600x20_svg___x32_96.7:6.7" class="sb-tbalken-s-600x20_svg__cls-1" d="M293.63 3.63h6.07V9.7h-6.07z"></path><path id="sb-tbalken-s-600x20_svg___x33_00.0:10" class="sb-tbalken-s-600x20_svg__cls-1" d="M297 7h6v6h-6z"></path><path id="sb-tbalken-s-600x20_svg___x32_96.7:13.3" class="sb-tbalken-s-600x20_svg__cls-1" d="M293.63 10.3h6.07v6.07h-6.07z"></path><path id="sb-tbalken-s-600x20_svg___x33_00.0:16.7" class="sb-tbalken-s-600x20_svg__cls-1" d="M297 13.67h6v6h-6z"></path><path id="sb-tbalken-s-600x20_svg___x32_96.7:20" class="sb-tbalken-s-600x20_svg__cls-1" d="M293.63 16.96h6.07v6.07h-6.07z"></path><path id="sb-tbalken-s-600x20_svg___x33_03.3:0" class="sb-tbalken-s-600x20_svg__cls-1" d="M300.37-2.96h5.93v5.93h-5.93z"></path><path id="sb-tbalken-s-600x20_svg___x33_06.7:3.3" class="sb-tbalken-s-600x20_svg__cls-1" d="M303.74.41h5.85v5.85h-5.85z"></path><path id="sb-tbalken-s-600x20_svg___x33_03.3:6.7" class="sb-tbalken-s-600x20_svg__cls-1" d="M300.37 3.7h5.93v5.93h-5.93z"></path><path id="sb-tbalken-s-600x20_svg___x33_06.7:10" class="sb-tbalken-s-600x20_svg__cls-1" d="M303.74 7.07h5.85v5.85h-5.85z"></path><path id="sb-tbalken-s-600x20_svg___x33_03.3:13.3" class="sb-tbalken-s-600x20_svg__cls-1" d="M300.37 10.37h5.93v5.93h-5.93z"></path><path id="sb-tbalken-s-600x20_svg___x33_06.7:16.7" class="sb-tbalken-s-600x20_svg__cls-1" d="M303.74 13.74h5.85v5.85h-5.85z"></path><path id="sb-tbalken-s-600x20_svg___x33_03.3:20" class="sb-tbalken-s-600x20_svg__cls-1" d="M300.37 17.04h5.93v5.93h-5.93z"></path><path id="sb-tbalken-s-600x20_svg___x33_10.0:0" class="sb-tbalken-s-600x20_svg__cls-1" d="M307.11-2.89h5.78v5.78h-5.78z"></path><path id="sb-tbalken-s-600x20_svg___x33_13.3:3.3" class="sb-tbalken-s-600x20_svg__cls-1" d="M310.48.48h5.7v5.7h-5.7z"></path><path id="sb-tbalken-s-600x20_svg___x33_10.0:6.7" class="sb-tbalken-s-600x20_svg__cls-1" d="M307.11 3.78h5.78v5.78h-5.78z"></path><path id="sb-tbalken-s-600x20_svg___x33_13.3:10" class="sb-tbalken-s-600x20_svg__cls-1" d="M310.48 7.15h5.7v5.7h-5.7z"></path><path id="sb-tbalken-s-600x20_svg___x33_10.0:13.3" class="sb-tbalken-s-600x20_svg__cls-1" d="M307.11 10.44h5.78v5.78h-5.78z"></path><path id="sb-tbalken-s-600x20_svg___x33_13.3:16.7" class="sb-tbalken-s-600x20_svg__cls-1" d="M310.48 13.81h5.7v5.7h-5.7z"></path><path id="sb-tbalken-s-600x20_svg___x33_10.0:20" class="sb-tbalken-s-600x20_svg__cls-1" d="M307.11 17.11h5.78v5.78h-5.78z"></path><path id="sb-tbalken-s-600x20_svg___x33_16.7:0" class="sb-tbalken-s-600x20_svg__cls-1" d="M313.85-2.81h5.63v5.63h-5.63z"></path><path id="sb-tbalken-s-600x20_svg___x33_20.0:3.3" class="sb-tbalken-s-600x20_svg__cls-1" d="M317.22.56h5.56v5.56h-5.56z"></path><path id="sb-tbalken-s-600x20_svg___x33_16.7:6.7" class="sb-tbalken-s-600x20_svg__cls-1" d="M313.85 3.85h5.63v5.63h-5.63z"></path><path id="sb-tbalken-s-600x20_svg___x33_20.0:10" class="sb-tbalken-s-600x20_svg__cls-1" d="M317.22 7.22h5.56v5.56h-5.56z"></path><path id="sb-tbalken-s-600x20_svg___x33_16.7:13.3" class="sb-tbalken-s-600x20_svg__cls-1" d="M313.85 10.52h5.63v5.63h-5.63z"></path><path id="sb-tbalken-s-600x20_svg___x33_20.0:16.7" class="sb-tbalken-s-600x20_svg__cls-1" d="M317.22 13.89h5.56v5.56h-5.56z"></path><path id="sb-tbalken-s-600x20_svg___x33_16.7:20" class="sb-tbalken-s-600x20_svg__cls-1" d="M313.85 17.19h5.63v5.63h-5.63z"></path><path id="sb-tbalken-s-600x20_svg___x33_23.3:0" class="sb-tbalken-s-600x20_svg__cls-1" d="M320.59-2.74h5.48v5.48h-5.48z"></path><path id="sb-tbalken-s-600x20_svg___x33_26.7:3.3" class="sb-tbalken-s-600x20_svg__cls-1" d="M323.96.63h5.41v5.41h-5.41z"></path><path id="sb-tbalken-s-600x20_svg___x33_23.3:6.7" class="sb-tbalken-s-600x20_svg__cls-1" d="M320.59 3.93h5.48v5.48h-5.48z"></path><path id="sb-tbalken-s-600x20_svg___x33_26.7:10" class="sb-tbalken-s-600x20_svg__cls-1" d="M323.96 7.3h5.41v5.41h-5.41z"></path><path id="sb-tbalken-s-600x20_svg___x33_23.3:13.3" class="sb-tbalken-s-600x20_svg__cls-1" d="M320.59 10.59h5.48v5.48h-5.48z"></path><path id="sb-tbalken-s-600x20_svg___x33_26.7:16.7" class="sb-tbalken-s-600x20_svg__cls-1" d="M323.96 13.96h5.41v5.41h-5.41z"></path><path id="sb-tbalken-s-600x20_svg___x33_23.3:20" class="sb-tbalken-s-600x20_svg__cls-1" d="M320.59 17.26h5.48v5.48h-5.48z"></path><path id="sb-tbalken-s-600x20_svg___x33_30.0:0" class="sb-tbalken-s-600x20_svg__cls-1" d="M327.33-2.67h5.33v5.33h-5.33z"></path><path id="sb-tbalken-s-600x20_svg___x33_33.3:3.3" class="sb-tbalken-s-600x20_svg__cls-1" d="M330.7.7h5.26v5.26h-5.26z"></path><path id="sb-tbalken-s-600x20_svg___x33_30.0:6.7" class="sb-tbalken-s-600x20_svg__cls-1" d="M327.33 4h5.33v5.33h-5.33z"></path><path id="sb-tbalken-s-600x20_svg___x33_33.3:10" class="sb-tbalken-s-600x20_svg__cls-1" d="M330.7 7.37h5.26v5.26h-5.26z"></path><path id="sb-tbalken-s-600x20_svg___x33_30.0:13.3" class="sb-tbalken-s-600x20_svg__cls-1" d="M327.33 10.67h5.33V16h-5.33z"></path><path id="sb-tbalken-s-600x20_svg___x33_33.3:16.7" class="sb-tbalken-s-600x20_svg__cls-1" d="M330.7 14.04h5.26v5.26h-5.26z"></path><path id="sb-tbalken-s-600x20_svg___x33_30.0:20" class="sb-tbalken-s-600x20_svg__cls-1" d="M327.33 17.33h5.33v5.33h-5.33z"></path><path id="sb-tbalken-s-600x20_svg___x33_36.7:0" class="sb-tbalken-s-600x20_svg__cls-1" d="M334.07-2.59h5.19V2.6h-5.19z"></path><path id="sb-tbalken-s-600x20_svg___x33_40.0:3.3" class="sb-tbalken-s-600x20_svg__cls-1" d="M337.44.78h5.11v5.11h-5.11z"></path><path id="sb-tbalken-s-600x20_svg___x33_36.7:6.7" class="sb-tbalken-s-600x20_svg__cls-1" d="M334.07 4.07h5.19v5.19h-5.19z"></path><path id="sb-tbalken-s-600x20_svg___x33_40.0:10" class="sb-tbalken-s-600x20_svg__cls-1" d="M337.44 7.44h5.11v5.11h-5.11z"></path><path id="sb-tbalken-s-600x20_svg___x33_36.7:13.3" class="sb-tbalken-s-600x20_svg__cls-1" d="M334.07 10.74h5.19v5.19h-5.19z"></path><path id="sb-tbalken-s-600x20_svg___x33_40.0:16.7" class="sb-tbalken-s-600x20_svg__cls-1" d="M337.44 14.11h5.11v5.11h-5.11z"></path><path id="sb-tbalken-s-600x20_svg___x33_36.7:20" class="sb-tbalken-s-600x20_svg__cls-1" d="M334.07 17.41h5.19v5.19h-5.19z"></path><path id="sb-tbalken-s-600x20_svg___x33_43.3:0" class="sb-tbalken-s-600x20_svg__cls-1" d="M340.81-2.52h5.04v5.04h-5.04z"></path><path id="sb-tbalken-s-600x20_svg___x33_46.7:3.3" class="sb-tbalken-s-600x20_svg__cls-1" d="M344.19.85h4.96v4.96h-4.96z"></path><path id="sb-tbalken-s-600x20_svg___x33_43.3:6.7" class="sb-tbalken-s-600x20_svg__cls-1" d="M340.81 4.15h5.04v5.04h-5.04z"></path><path id="sb-tbalken-s-600x20_svg___x33_46.7:10" class="sb-tbalken-s-600x20_svg__cls-1" d="M344.19 7.52h4.96v4.96h-4.96z"></path><path id="sb-tbalken-s-600x20_svg___x33_43.3:13.3" class="sb-tbalken-s-600x20_svg__cls-1" d="M340.81 10.81h5.04v5.04h-5.04z"></path><path id="sb-tbalken-s-600x20_svg___x33_46.7:16.7" class="sb-tbalken-s-600x20_svg__cls-1" d="M344.19 14.19h4.96v4.96h-4.96z"></path><path id="sb-tbalken-s-600x20_svg___x33_43.3:20" class="sb-tbalken-s-600x20_svg__cls-1" d="M340.81 17.48h5.04v5.04h-5.04z"></path><path id="sb-tbalken-s-600x20_svg___x33_50.0:0" class="sb-tbalken-s-600x20_svg__cls-1" d="M347.56-2.44h4.89v4.89h-4.89z"></path><path id="sb-tbalken-s-600x20_svg___x33_53.3:3.3" class="sb-tbalken-s-600x20_svg__cls-1" d="M350.93.93h4.81v4.81h-4.81z"></path><path id="sb-tbalken-s-600x20_svg___x33_50.0:6.7" class="sb-tbalken-s-600x20_svg__cls-1" d="M347.56 4.22h4.89v4.89h-4.89z"></path><path id="sb-tbalken-s-600x20_svg___x33_53.3:10" class="sb-tbalken-s-600x20_svg__cls-1" d="M350.93 7.59h4.81v4.81h-4.81z"></path><path id="sb-tbalken-s-600x20_svg___x33_50.0:13.3" class="sb-tbalken-s-600x20_svg__cls-1" d="M347.56 10.89h4.89v4.89h-4.89z"></path><path id="sb-tbalken-s-600x20_svg___x33_53.3:16.7" class="sb-tbalken-s-600x20_svg__cls-1" d="M350.93 14.26h4.81v4.81h-4.81z"></path><path id="sb-tbalken-s-600x20_svg___x33_50.0:20" class="sb-tbalken-s-600x20_svg__cls-1" d="M347.56 17.56h4.89v4.89h-4.89z"></path><path id="sb-tbalken-s-600x20_svg___x33_56.7:0" class="sb-tbalken-s-600x20_svg__cls-1" d="M354.3-2.37h4.74v4.74h-4.74z"></path><path id="sb-tbalken-s-600x20_svg___x33_60.0:3.3" class="sb-tbalken-s-600x20_svg__cls-1" d="M357.67 1h4.67v4.67h-4.67z"></path><path id="sb-tbalken-s-600x20_svg___x33_56.7:6.7" class="sb-tbalken-s-600x20_svg__cls-1" d="M354.3 4.3h4.74v4.74h-4.74z"></path><path id="sb-tbalken-s-600x20_svg___x33_60.0:10" class="sb-tbalken-s-600x20_svg__cls-1" d="M357.67 7.67h4.67v4.67h-4.67z"></path><path id="sb-tbalken-s-600x20_svg___x33_56.7:13.3" class="sb-tbalken-s-600x20_svg__cls-1" d="M354.3 10.96h4.74v4.74h-4.74z"></path><path id="sb-tbalken-s-600x20_svg___x33_60.0:16.7" class="sb-tbalken-s-600x20_svg__cls-1" d="M357.67 14.33h4.67V19h-4.67z"></path><path id="sb-tbalken-s-600x20_svg___x33_56.7:20" class="sb-tbalken-s-600x20_svg__cls-1" d="M354.3 17.63h4.74v4.74h-4.74z"></path><path id="sb-tbalken-s-600x20_svg___x33_63.3:0" class="sb-tbalken-s-600x20_svg__cls-1" d="M361.04-2.3h4.59v4.59h-4.59z"></path><path id="sb-tbalken-s-600x20_svg___x33_66.7:3.3" class="sb-tbalken-s-600x20_svg__cls-1" d="M364.41 1.07h4.52v4.52h-4.52z"></path><path id="sb-tbalken-s-600x20_svg___x33_63.3:6.7" class="sb-tbalken-s-600x20_svg__cls-1" d="M361.04 4.37h4.59v4.59h-4.59z"></path><path id="sb-tbalken-s-600x20_svg___x33_66.7:10" class="sb-tbalken-s-600x20_svg__cls-1" d="M364.41 7.74h4.52v4.52h-4.52z"></path><path id="sb-tbalken-s-600x20_svg___x33_63.3:13.3" class="sb-tbalken-s-600x20_svg__cls-1" d="M361.04 11.04h4.59v4.59h-4.59z"></path><path id="sb-tbalken-s-600x20_svg___x33_66.7:16.7" class="sb-tbalken-s-600x20_svg__cls-1" d="M364.41 14.41h4.52v4.52h-4.52z"></path><path id="sb-tbalken-s-600x20_svg___x33_63.3:20" class="sb-tbalken-s-600x20_svg__cls-1" d="M361.04 17.7h4.59v4.59h-4.59z"></path><path id="sb-tbalken-s-600x20_svg___x33_70.0:0" class="sb-tbalken-s-600x20_svg__cls-1" d="M367.78-2.22h4.44v4.44h-4.44z"></path><path id="sb-tbalken-s-600x20_svg___x33_73.3:3.3" class="sb-tbalken-s-600x20_svg__cls-1" d="M371.15 1.15h4.37v4.37h-4.37z"></path><path id="sb-tbalken-s-600x20_svg___x33_70.0:6.7" class="sb-tbalken-s-600x20_svg__cls-1" d="M367.78 4.44h4.44v4.44h-4.44z"></path><path id="sb-tbalken-s-600x20_svg___x33_73.3:10" class="sb-tbalken-s-600x20_svg__cls-1" d="M371.15 7.81h4.37v4.37h-4.37z"></path><path id="sb-tbalken-s-600x20_svg___x33_70.0:13.3" class="sb-tbalken-s-600x20_svg__cls-1" d="M367.78 11.11h4.44v4.44h-4.44z"></path><path id="sb-tbalken-s-600x20_svg___x33_73.3:16.7" class="sb-tbalken-s-600x20_svg__cls-1" d="M371.15 14.48h4.37v4.37h-4.37z"></path><path id="sb-tbalken-s-600x20_svg___x33_70.0:20" class="sb-tbalken-s-600x20_svg__cls-1" d="M367.78 17.78h4.44v4.44h-4.44z"></path><path id="sb-tbalken-s-600x20_svg___x33_76.7:0" class="sb-tbalken-s-600x20_svg__cls-1" d="M374.52-2.15h4.3v4.3h-4.3z"></path><path id="sb-tbalken-s-600x20_svg___x33_80.0:3.3" class="sb-tbalken-s-600x20_svg__cls-1" d="M377.89 1.22h4.22v4.22h-4.22z"></path><path id="sb-tbalken-s-600x20_svg___x33_76.7:6.7" class="sb-tbalken-s-600x20_svg__cls-1" d="M374.52 4.52h4.3v4.3h-4.3z"></path><path id="sb-tbalken-s-600x20_svg___x33_80.0:10" class="sb-tbalken-s-600x20_svg__cls-1" d="M377.89 7.89h4.22v4.22h-4.22z"></path><path id="sb-tbalken-s-600x20_svg___x33_76.7:13.3" class="sb-tbalken-s-600x20_svg__cls-1" d="M374.52 11.19h4.3v4.3h-4.3z"></path><path id="sb-tbalken-s-600x20_svg___x33_80.0:16.7" class="sb-tbalken-s-600x20_svg__cls-1" d="M377.89 14.56h4.22v4.22h-4.22z"></path><path id="sb-tbalken-s-600x20_svg___x33_76.7:20" class="sb-tbalken-s-600x20_svg__cls-1" d="M374.52 17.85h4.3v4.3h-4.3z"></path><path id="sb-tbalken-s-600x20_svg___x33_83.3:0" class="sb-tbalken-s-600x20_svg__cls-1" d="M381.26-2.07h4.15v4.15h-4.15z"></path><path id="sb-tbalken-s-600x20_svg___x33_86.7:3.3" class="sb-tbalken-s-600x20_svg__cls-1" d="M384.63 1.3h4.07v4.07h-4.07z"></path><path id="sb-tbalken-s-600x20_svg___x33_83.3:6.7" class="sb-tbalken-s-600x20_svg__cls-1" d="M381.26 4.59h4.15v4.15h-4.15z"></path><path id="sb-tbalken-s-600x20_svg___x33_86.7:10" class="sb-tbalken-s-600x20_svg__cls-1" d="M384.63 7.96h4.07v4.07h-4.07z"></path><path id="sb-tbalken-s-600x20_svg___x33_83.3:13.3" class="sb-tbalken-s-600x20_svg__cls-1" d="M381.26 11.26h4.15v4.15h-4.15z"></path><path id="sb-tbalken-s-600x20_svg___x33_86.7:16.7" class="sb-tbalken-s-600x20_svg__cls-1" d="M384.63 14.63h4.07v4.07h-4.07z"></path><path id="sb-tbalken-s-600x20_svg___x33_83.3:20" class="sb-tbalken-s-600x20_svg__cls-1" d="M381.26 17.93h4.15v4.15h-4.15z"></path><path id="sb-tbalken-s-600x20_svg___x33_90.0:0" class="sb-tbalken-s-600x20_svg__cls-1" d="M388-2h4v4h-4z"></path><path id="sb-tbalken-s-600x20_svg___x33_93.3:3.3" class="sb-tbalken-s-600x20_svg__cls-1" d="M391.37 1.37h3.93V5.3h-3.93z"></path><path id="sb-tbalken-s-600x20_svg___x33_90.0:6.7" class="sb-tbalken-s-600x20_svg__cls-1" d="M388 4.67h4v4h-4z"></path><path id="sb-tbalken-s-600x20_svg___x33_93.3:10" class="sb-tbalken-s-600x20_svg__cls-1" d="M391.37 8.04h3.93v3.93h-3.93z"></path><path id="sb-tbalken-s-600x20_svg___x33_90.0:13.3" class="sb-tbalken-s-600x20_svg__cls-1" d="M388 11.33h4v4h-4z"></path><path id="sb-tbalken-s-600x20_svg___x33_93.3:16.7" class="sb-tbalken-s-600x20_svg__cls-1" d="M391.37 14.7h3.93v3.93h-3.93z"></path><path id="sb-tbalken-s-600x20_svg___x33_90.0:20" class="sb-tbalken-s-600x20_svg__cls-1" d="M388 18h4v4h-4z"></path><path id="sb-tbalken-s-600x20_svg___x33_96.7:0" class="sb-tbalken-s-600x20_svg__cls-1" d="M394.74-1.93h3.85v3.85h-3.85z"></path><path id="sb-tbalken-s-600x20_svg___x34_00.0:3.3" class="sb-tbalken-s-600x20_svg__cls-1" d="M398.11 1.44h3.78v3.78h-3.78z"></path><path id="sb-tbalken-s-600x20_svg___x33_96.7:6.7" class="sb-tbalken-s-600x20_svg__cls-1" d="M394.74 4.74h3.85v3.85h-3.85z"></path><path id="sb-tbalken-s-600x20_svg___x34_00.0:10" class="sb-tbalken-s-600x20_svg__cls-1" d="M398.11 8.11h3.78v3.78h-3.78z"></path><path id="sb-tbalken-s-600x20_svg___x33_96.7:13.3" class="sb-tbalken-s-600x20_svg__cls-1" d="M394.74 11.41h3.85v3.85h-3.85z"></path><path id="sb-tbalken-s-600x20_svg___x34_00.0:16.7" class="sb-tbalken-s-600x20_svg__cls-1" d="M398.11 14.78h3.78v3.78h-3.78z"></path><path id="sb-tbalken-s-600x20_svg___x33_96.7:20" class="sb-tbalken-s-600x20_svg__cls-1" d="M394.74 18.07h3.85v3.85h-3.85z"></path><path id="sb-tbalken-s-600x20_svg___x34_03.3:0" class="sb-tbalken-s-600x20_svg__cls-1" d="M401.48-1.85h3.7v3.7h-3.7z"></path><path id="sb-tbalken-s-600x20_svg___x34_06.7:3.3" class="sb-tbalken-s-600x20_svg__cls-1" d="M404.85 1.52h3.63v3.63h-3.63z"></path><path id="sb-tbalken-s-600x20_svg___x34_03.3:6.7" class="sb-tbalken-s-600x20_svg__cls-1" d="M401.48 4.81h3.7v3.7h-3.7z"></path><path id="sb-tbalken-s-600x20_svg___x34_06.7:10" class="sb-tbalken-s-600x20_svg__cls-1" d="M404.85 8.19h3.63v3.63h-3.63z"></path><path id="sb-tbalken-s-600x20_svg___x34_03.3:13.3" class="sb-tbalken-s-600x20_svg__cls-1" d="M401.48 11.48h3.7v3.7h-3.7z"></path><path id="sb-tbalken-s-600x20_svg___x34_06.7:16.7" class="sb-tbalken-s-600x20_svg__cls-1" d="M404.85 14.85h3.63v3.63h-3.63z"></path><path id="sb-tbalken-s-600x20_svg___x34_03.3:20" class="sb-tbalken-s-600x20_svg__cls-1" d="M401.48 18.15h3.7v3.7h-3.7z"></path><path id="sb-tbalken-s-600x20_svg___x34_10.0:0" class="sb-tbalken-s-600x20_svg__cls-1" d="M408.22-1.78h3.56v3.56h-3.56z"></path><path id="sb-tbalken-s-600x20_svg___x34_13.3:3.3" class="sb-tbalken-s-600x20_svg__cls-1" d="M411.59 1.59h3.48v3.48h-3.48z"></path><path id="sb-tbalken-s-600x20_svg___x34_10.0:6.7" class="sb-tbalken-s-600x20_svg__cls-1" d="M408.22 4.89h3.56v3.56h-3.56z"></path><path id="sb-tbalken-s-600x20_svg___x34_13.3:10" class="sb-tbalken-s-600x20_svg__cls-1" d="M411.59 8.26h3.48v3.48h-3.48z"></path><path id="sb-tbalken-s-600x20_svg___x34_10.0:13.3" class="sb-tbalken-s-600x20_svg__cls-1" d="M408.22 11.56h3.56v3.56h-3.56z"></path><path id="sb-tbalken-s-600x20_svg___x34_13.3:16.7" class="sb-tbalken-s-600x20_svg__cls-1" d="M411.59 14.93h3.48v3.48h-3.48z"></path><path id="sb-tbalken-s-600x20_svg___x34_10.0:20" class="sb-tbalken-s-600x20_svg__cls-1" d="M408.22 18.22h3.56v3.56h-3.56z"></path><path id="sb-tbalken-s-600x20_svg___x34_16.7:0" class="sb-tbalken-s-600x20_svg__cls-1" d="M414.96-1.7h3.41v3.41h-3.41z"></path><path id="sb-tbalken-s-600x20_svg___x34_20.0:3.3" class="sb-tbalken-s-600x20_svg__cls-1" d="M418.33 1.67h3.33V5h-3.33z"></path><path id="sb-tbalken-s-600x20_svg___x34_16.7:6.7" class="sb-tbalken-s-600x20_svg__cls-1" d="M414.96 4.96h3.41v3.41h-3.41z"></path><path id="sb-tbalken-s-600x20_svg___x34_20.0:10" class="sb-tbalken-s-600x20_svg__cls-1" d="M418.33 8.33h3.33v3.33h-3.33z"></path><path id="sb-tbalken-s-600x20_svg___x34_16.7:13.3" class="sb-tbalken-s-600x20_svg__cls-1" d="M414.96 11.63h3.41v3.41h-3.41z"></path><path id="sb-tbalken-s-600x20_svg___x34_20.0:16.7" class="sb-tbalken-s-600x20_svg__cls-1" d="M418.33 15h3.33v3.33h-3.33z"></path><path id="sb-tbalken-s-600x20_svg___x34_16.7:20" class="sb-tbalken-s-600x20_svg__cls-1" d="M414.96 18.3h3.41v3.41h-3.41z"></path><path id="sb-tbalken-s-600x20_svg___x34_23.3:0" class="sb-tbalken-s-600x20_svg__cls-1" d="M421.7-1.63h3.26v3.26h-3.26z"></path><path id="sb-tbalken-s-600x20_svg___x34_26.7:3.3" class="sb-tbalken-s-600x20_svg__cls-1" d="M425.07 1.74h3.19v3.19h-3.19z"></path><path id="sb-tbalken-s-600x20_svg___x34_23.3:6.7" class="sb-tbalken-s-600x20_svg__cls-1" d="M421.7 5.04h3.26V8.3h-3.26z"></path><path id="sb-tbalken-s-600x20_svg___x34_26.7:10" class="sb-tbalken-s-600x20_svg__cls-1" d="M425.07 8.41h3.19v3.19h-3.19z"></path><path id="sb-tbalken-s-600x20_svg___x34_23.3:13.3" class="sb-tbalken-s-600x20_svg__cls-1" d="M421.7 11.7h3.26v3.26h-3.26z"></path><path id="sb-tbalken-s-600x20_svg___x34_26.7:16.7" class="sb-tbalken-s-600x20_svg__cls-1" d="M425.07 15.07h3.19v3.19h-3.19z"></path><path id="sb-tbalken-s-600x20_svg___x34_23.3:20" class="sb-tbalken-s-600x20_svg__cls-1" d="M421.7 18.37h3.26v3.26h-3.26z"></path><path id="sb-tbalken-s-600x20_svg___x34_30.0:0" class="sb-tbalken-s-600x20_svg__cls-1" d="M428.44-1.56h3.11v3.11h-3.11z"></path><path id="sb-tbalken-s-600x20_svg___x34_33.3:3.3" class="sb-tbalken-s-600x20_svg__cls-1" d="M431.81 1.81h3.04v3.04h-3.04z"></path><path id="sb-tbalken-s-600x20_svg___x34_30.0:6.7" class="sb-tbalken-s-600x20_svg__cls-1" d="M428.44 5.11h3.11v3.11h-3.11z"></path><path id="sb-tbalken-s-600x20_svg___x34_33.3:10" class="sb-tbalken-s-600x20_svg__cls-1" d="M431.81 8.48h3.04v3.04h-3.04z"></path><path id="sb-tbalken-s-600x20_svg___x34_30.0:13.3" class="sb-tbalken-s-600x20_svg__cls-1" d="M428.44 11.78h3.11v3.11h-3.11z"></path><path id="sb-tbalken-s-600x20_svg___x34_33.3:16.7" class="sb-tbalken-s-600x20_svg__cls-1" d="M431.81 15.15h3.04v3.04h-3.04z"></path><path id="sb-tbalken-s-600x20_svg___x34_30.0:20" class="sb-tbalken-s-600x20_svg__cls-1" d="M428.44 18.44h3.11v3.11h-3.11z"></path><path id="sb-tbalken-s-600x20_svg___x34_36.7:0" class="sb-tbalken-s-600x20_svg__cls-1" d="M435.19-1.48h2.96v2.96h-2.96z"></path><path id="sb-tbalken-s-600x20_svg___x34_40.0:3.3" class="sb-tbalken-s-600x20_svg__cls-1" d="M438.56 1.89h2.89v2.89h-2.89z"></path><path id="sb-tbalken-s-600x20_svg___x34_36.7:6.7" class="sb-tbalken-s-600x20_svg__cls-1" d="M435.19 5.19h2.96v2.96h-2.96z"></path><path id="sb-tbalken-s-600x20_svg___x34_40.0:10" class="sb-tbalken-s-600x20_svg__cls-1" d="M438.56 8.56h2.89v2.89h-2.89z"></path><path id="sb-tbalken-s-600x20_svg___x34_36.7:13.3" class="sb-tbalken-s-600x20_svg__cls-1" d="M435.19 11.85h2.96v2.96h-2.96z"></path><path id="sb-tbalken-s-600x20_svg___x34_40.0:16.7" class="sb-tbalken-s-600x20_svg__cls-1" d="M438.56 15.22h2.89v2.89h-2.89z"></path><path id="sb-tbalken-s-600x20_svg___x34_36.7:20" class="sb-tbalken-s-600x20_svg__cls-1" d="M435.19 18.52h2.96v2.96h-2.96z"></path><path id="sb-tbalken-s-600x20_svg___x34_43.3:0" class="sb-tbalken-s-600x20_svg__cls-1" d="M441.93-1.41h2.81V1.4h-2.81z"></path><path id="sb-tbalken-s-600x20_svg___x34_46.7:3.3" class="sb-tbalken-s-600x20_svg__cls-1" d="M445.3 1.96h2.74V4.7h-2.74z"></path><path id="sb-tbalken-s-600x20_svg___x34_43.3:6.7" class="sb-tbalken-s-600x20_svg__cls-1" d="M441.93 5.26h2.81v2.81h-2.81z"></path><path id="sb-tbalken-s-600x20_svg___x34_46.7:10" class="sb-tbalken-s-600x20_svg__cls-1" d="M445.3 8.63h2.74v2.74h-2.74z"></path><path id="sb-tbalken-s-600x20_svg___x34_43.3:13.3" class="sb-tbalken-s-600x20_svg__cls-1" d="M441.93 11.93h2.81v2.81h-2.81z"></path><path id="sb-tbalken-s-600x20_svg___x34_46.7:16.7" class="sb-tbalken-s-600x20_svg__cls-1" d="M445.3 15.3h2.74v2.74h-2.74z"></path><path id="sb-tbalken-s-600x20_svg___x34_43.3:20" class="sb-tbalken-s-600x20_svg__cls-1" d="M441.93 18.59h2.81v2.81h-2.81z"></path><path id="sb-tbalken-s-600x20_svg___x34_50.0:0" class="sb-tbalken-s-600x20_svg__cls-1" d="M448.67-1.33h2.67v2.67h-2.67z"></path><path id="sb-tbalken-s-600x20_svg___x34_53.3:3.3" class="sb-tbalken-s-600x20_svg__cls-1" d="M452.04 2.04h2.59v2.59h-2.59z"></path><path id="sb-tbalken-s-600x20_svg___x34_50.0:6.7" class="sb-tbalken-s-600x20_svg__cls-1" d="M448.67 5.33h2.67V8h-2.67z"></path><path id="sb-tbalken-s-600x20_svg___x34_53.3:10" class="sb-tbalken-s-600x20_svg__cls-1" d="M452.04 8.7h2.59v2.59h-2.59z"></path><path id="sb-tbalken-s-600x20_svg___x34_50.0:13.3" class="sb-tbalken-s-600x20_svg__cls-1" d="M448.67 12h2.67v2.67h-2.67z"></path><path id="sb-tbalken-s-600x20_svg___x34_53.3:16.7" class="sb-tbalken-s-600x20_svg__cls-1" d="M452.04 15.37h2.59v2.59h-2.59z"></path><path id="sb-tbalken-s-600x20_svg___x34_50.0:20" class="sb-tbalken-s-600x20_svg__cls-1" d="M448.67 18.67h2.67v2.67h-2.67z"></path><path id="sb-tbalken-s-600x20_svg___x34_56.7:0" class="sb-tbalken-s-600x20_svg__cls-1" d="M455.41-1.26h2.52v2.52h-2.52z"></path><path id="sb-tbalken-s-600x20_svg___x34_60.0:3.3" class="sb-tbalken-s-600x20_svg__cls-1" d="M458.78 2.11h2.44v2.44h-2.44z"></path><path id="sb-tbalken-s-600x20_svg___x34_56.7:6.7" class="sb-tbalken-s-600x20_svg__cls-1" d="M455.41 5.41h2.52v2.52h-2.52z"></path><path id="sb-tbalken-s-600x20_svg___x34_60.0:10" class="sb-tbalken-s-600x20_svg__cls-1" d="M458.78 8.78h2.44v2.44h-2.44z"></path><path id="sb-tbalken-s-600x20_svg___x34_56.7:13.3" class="sb-tbalken-s-600x20_svg__cls-1" d="M455.41 12.07h2.52v2.52h-2.52z"></path><path id="sb-tbalken-s-600x20_svg___x34_60.0:16.7" class="sb-tbalken-s-600x20_svg__cls-1" d="M458.78 15.44h2.44v2.44h-2.44z"></path><path id="sb-tbalken-s-600x20_svg___x34_56.7:20" class="sb-tbalken-s-600x20_svg__cls-1" d="M455.41 18.74h2.52v2.52h-2.52z"></path><path id="sb-tbalken-s-600x20_svg___x34_63.3:0" class="sb-tbalken-s-600x20_svg__cls-1" d="M462.15-1.19h2.37v2.37h-2.37z"></path><path id="sb-tbalken-s-600x20_svg___x34_66.7:3.3" class="sb-tbalken-s-600x20_svg__cls-1" d="M465.52 2.19h2.3v2.3h-2.3z"></path><path id="sb-tbalken-s-600x20_svg___x34_63.3:6.7" class="sb-tbalken-s-600x20_svg__cls-1" d="M462.15 5.48h2.37v2.37h-2.37z"></path><path id="sb-tbalken-s-600x20_svg___x34_66.7:10" class="sb-tbalken-s-600x20_svg__cls-1" d="M465.52 8.85h2.3v2.3h-2.3z"></path><path id="sb-tbalken-s-600x20_svg___x34_63.3:13.3" class="sb-tbalken-s-600x20_svg__cls-1" d="M462.15 12.15h2.37v2.37h-2.37z"></path><path id="sb-tbalken-s-600x20_svg___x34_66.7:16.7" class="sb-tbalken-s-600x20_svg__cls-1" d="M465.52 15.52h2.3v2.3h-2.3z"></path><path id="sb-tbalken-s-600x20_svg___x34_63.3:20" class="sb-tbalken-s-600x20_svg__cls-1" d="M462.15 18.81h2.37v2.37h-2.37z"></path><path id="sb-tbalken-s-600x20_svg___x34_70.0:0" class="sb-tbalken-s-600x20_svg__cls-1" d="M468.89-1.11h2.22v2.22h-2.22z"></path><path id="sb-tbalken-s-600x20_svg___x34_73.3:3.3" class="sb-tbalken-s-600x20_svg__cls-1" d="M472.26 2.26h2.15v2.15h-2.15z"></path><path id="sb-tbalken-s-600x20_svg___x34_70.0:6.7" class="sb-tbalken-s-600x20_svg__cls-1" d="M468.89 5.56h2.22v2.22h-2.22z"></path><path id="sb-tbalken-s-600x20_svg___x34_73.3:10" class="sb-tbalken-s-600x20_svg__cls-1" d="M472.26 8.93h2.15v2.15h-2.15z"></path><path id="sb-tbalken-s-600x20_svg___x34_70.0:13.3" class="sb-tbalken-s-600x20_svg__cls-1" d="M468.89 12.22h2.22v2.22h-2.22z"></path><path id="sb-tbalken-s-600x20_svg___x34_73.3:16.7" class="sb-tbalken-s-600x20_svg__cls-1" d="M472.26 15.59h2.15v2.15h-2.15z"></path><path id="sb-tbalken-s-600x20_svg___x34_70.0:20" class="sb-tbalken-s-600x20_svg__cls-1" d="M468.89 18.89h2.22v2.22h-2.22z"></path><path id="sb-tbalken-s-600x20_svg___x34_76.7:0" class="sb-tbalken-s-600x20_svg__cls-1" d="M475.63-1.04h2.07v2.07h-2.07z"></path><path id="sb-tbalken-s-600x20_svg___x34_80.0:3.3" class="sb-tbalken-s-600x20_svg__cls-1" d="M479 2.33h2v2h-2z"></path><path id="sb-tbalken-s-600x20_svg___x34_76.7:6.7" class="sb-tbalken-s-600x20_svg__cls-1" d="M475.63 5.63h2.07V7.7h-2.07z"></path><path id="sb-tbalken-s-600x20_svg___x34_80.0:10" class="sb-tbalken-s-600x20_svg__cls-1" d="M479 9h2v2h-2z"></path><path id="sb-tbalken-s-600x20_svg___x34_76.7:13.3" class="sb-tbalken-s-600x20_svg__cls-1" d="M475.63 12.3h2.07v2.07h-2.07z"></path><path id="sb-tbalken-s-600x20_svg___x34_80.0:16.7" class="sb-tbalken-s-600x20_svg__cls-1" d="M479 15.67h2v2h-2z"></path><path id="sb-tbalken-s-600x20_svg___x34_76.7:20" class="sb-tbalken-s-600x20_svg__cls-1" d="M475.63 18.96h2.07v2.07h-2.07z"></path><path id="sb-tbalken-s-600x20_svg___x34_83.3:0" class="sb-tbalken-s-600x20_svg__cls-1" d="M482.37-.96h1.93V.97h-1.93z"></path><path id="sb-tbalken-s-600x20_svg___x34_86.7:3.3" class="sb-tbalken-s-600x20_svg__cls-1" d="M485.74 2.41h1.85v1.85h-1.85z"></path><path id="sb-tbalken-s-600x20_svg___x34_83.3:6.7" class="sb-tbalken-s-600x20_svg__cls-1" d="M482.37 5.7h1.93v1.93h-1.93z"></path><path id="sb-tbalken-s-600x20_svg___x34_86.7:10" class="sb-tbalken-s-600x20_svg__cls-1" d="M485.74 9.07h1.85v1.85h-1.85z"></path><path id="sb-tbalken-s-600x20_svg___x34_83.3:13.3" class="sb-tbalken-s-600x20_svg__cls-1" d="M482.37 12.37h1.93v1.93h-1.93z"></path><path id="sb-tbalken-s-600x20_svg___x34_86.7:16.7" class="sb-tbalken-s-600x20_svg__cls-1" d="M485.74 15.74h1.85v1.85h-1.85z"></path><path id="sb-tbalken-s-600x20_svg___x34_83.3:20" class="sb-tbalken-s-600x20_svg__cls-1" d="M482.37 19.04h1.93v1.93h-1.93z"></path><path id="sb-tbalken-s-600x20_svg___x34_90.0:0" class="sb-tbalken-s-600x20_svg__cls-1" d="M489.11-.89h1.78V.89h-1.78z"></path><path id="sb-tbalken-s-600x20_svg___x34_93.3:3.3" class="sb-tbalken-s-600x20_svg__cls-1" d="M492.48 2.48h1.7v1.7h-1.7z"></path><path id="sb-tbalken-s-600x20_svg___x34_90.0:6.7" class="sb-tbalken-s-600x20_svg__cls-1" d="M489.11 5.78h1.78v1.78h-1.78z"></path><path id="sb-tbalken-s-600x20_svg___x34_93.3:10" class="sb-tbalken-s-600x20_svg__cls-1" d="M492.48 9.15h1.7v1.7h-1.7z"></path><path id="sb-tbalken-s-600x20_svg___x34_90.0:13.3" class="sb-tbalken-s-600x20_svg__cls-1" d="M489.11 12.44h1.78v1.78h-1.78z"></path><path id="sb-tbalken-s-600x20_svg___x34_93.3:16.7" class="sb-tbalken-s-600x20_svg__cls-1" d="M492.48 15.81h1.7v1.7h-1.7z"></path><path id="sb-tbalken-s-600x20_svg___x34_90.0:20" class="sb-tbalken-s-600x20_svg__cls-1" d="M489.11 19.11h1.78v1.78h-1.78z"></path><path id="sb-tbalken-s-600x20_svg___x34_96.7:0" class="sb-tbalken-s-600x20_svg__cls-1" d="M495.85-.81h1.63V.82h-1.63z"></path><path id="sb-tbalken-s-600x20_svg___x35_00.0:3.3" class="sb-tbalken-s-600x20_svg__cls-1" d="M499.22 2.56h1.56v1.56h-1.56z"></path><path id="sb-tbalken-s-600x20_svg___x34_96.7:6.7" class="sb-tbalken-s-600x20_svg__cls-1" d="M495.85 5.85h1.63v1.63h-1.63z"></path><path id="sb-tbalken-s-600x20_svg___x35_00.0:10" class="sb-tbalken-s-600x20_svg__cls-1" d="M499.22 9.22h1.56v1.56h-1.56z"></path><path id="sb-tbalken-s-600x20_svg___x34_96.7:13.3" class="sb-tbalken-s-600x20_svg__cls-1" d="M495.85 12.52h1.63v1.63h-1.63z"></path><path id="sb-tbalken-s-600x20_svg___x35_00.0:16.7" class="sb-tbalken-s-600x20_svg__cls-1" d="M499.22 15.89h1.56v1.56h-1.56z"></path><path id="sb-tbalken-s-600x20_svg___x34_96.7:20" class="sb-tbalken-s-600x20_svg__cls-1" d="M495.85 19.19h1.63v1.63h-1.63z"></path><path id="sb-tbalken-s-600x20_svg___x35_03.3:0" class="sb-tbalken-s-600x20_svg__cls-1" d="M502.59-.74h1.48V.74h-1.48z"></path><path id="sb-tbalken-s-600x20_svg___x35_06.7:3.3" class="sb-tbalken-s-600x20_svg__cls-1" d="M505.96 2.63h1.41v1.41h-1.41z"></path><path id="sb-tbalken-s-600x20_svg___x35_03.3:6.7" class="sb-tbalken-s-600x20_svg__cls-1" d="M502.59 5.93h1.48v1.48h-1.48z"></path><path id="sb-tbalken-s-600x20_svg___x35_06.7:10" class="sb-tbalken-s-600x20_svg__cls-1" d="M505.96 9.3h1.41v1.41h-1.41z"></path><path id="sb-tbalken-s-600x20_svg___x35_03.3:13.3" class="sb-tbalken-s-600x20_svg__cls-1" d="M502.59 12.59h1.48v1.48h-1.48z"></path><path id="sb-tbalken-s-600x20_svg___x35_06.7:16.7" class="sb-tbalken-s-600x20_svg__cls-1" d="M505.96 15.96h1.41v1.41h-1.41z"></path><path id="sb-tbalken-s-600x20_svg___x35_03.3:20" class="sb-tbalken-s-600x20_svg__cls-1" d="M502.59 19.26h1.48v1.48h-1.48z"></path><path id="sb-tbalken-s-600x20_svg___x35_10.0:0" class="sb-tbalken-s-600x20_svg__cls-1" d="M509.33-.67h1.33V.66h-1.33z"></path><path id="sb-tbalken-s-600x20_svg___x35_13.3:3.3" class="sb-tbalken-s-600x20_svg__cls-1" d="M512.7 2.7h1.26v1.26h-1.26z"></path><path id="sb-tbalken-s-600x20_svg___x35_10.0:6.7" class="sb-tbalken-s-600x20_svg__cls-1" d="M509.33 6h1.33v1.33h-1.33z"></path><path id="sb-tbalken-s-600x20_svg___x35_13.3:10" class="sb-tbalken-s-600x20_svg__cls-1" d="M512.7 9.37h1.26v1.26h-1.26z"></path><path id="sb-tbalken-s-600x20_svg___x35_10.0:13.3" class="sb-tbalken-s-600x20_svg__cls-1" d="M509.33 12.67h1.33V14h-1.33z"></path><path id="sb-tbalken-s-600x20_svg___x35_13.3:16.7" class="sb-tbalken-s-600x20_svg__cls-1" d="M512.7 16.04h1.26v1.26h-1.26z"></path><path id="sb-tbalken-s-600x20_svg___x35_10.0:20" class="sb-tbalken-s-600x20_svg__cls-1" d="M509.33 19.33h1.33v1.33h-1.33z"></path><path id="sb-tbalken-s-600x20_svg___x35_16.7:0" class="sb-tbalken-s-600x20_svg__cls-1" d="M516.07-.59h1.19V.6h-1.19z"></path><path id="sb-tbalken-s-600x20_svg___x35_20.0:3.3" class="sb-tbalken-s-600x20_svg__cls-1" d="M519.44 2.78h1.11v1.11h-1.11z"></path><path id="sb-tbalken-s-600x20_svg___x35_16.7:6.7" class="sb-tbalken-s-600x20_svg__cls-1" d="M516.07 6.07h1.19v1.19h-1.19z"></path><path id="sb-tbalken-s-600x20_svg___x35_20.0:10" class="sb-tbalken-s-600x20_svg__cls-1" d="M519.44 9.44h1.11v1.11h-1.11z"></path><path id="sb-tbalken-s-600x20_svg___x35_16.7:13.3" class="sb-tbalken-s-600x20_svg__cls-1" d="M516.07 12.74h1.19v1.19h-1.19z"></path><path id="sb-tbalken-s-600x20_svg___x35_20.0:16.7" class="sb-tbalken-s-600x20_svg__cls-1" d="M519.44 16.11h1.11v1.11h-1.11z"></path><path id="sb-tbalken-s-600x20_svg___x35_16.7:20" class="sb-tbalken-s-600x20_svg__cls-1" d="M516.07 19.41h1.19v1.19h-1.19z"></path><path id="sb-tbalken-s-600x20_svg___x35_23.3:0" class="sb-tbalken-s-600x20_svg__cls-1" d="M522.81-.52h1.04V.52h-1.04z"></path><path id="sb-tbalken-s-600x20_svg___x35_26.7:3.3" class="sb-tbalken-s-600x20_svg__cls-1" d="M526.19 2.85h.96v.96h-.96z"></path><path id="sb-tbalken-s-600x20_svg___x35_23.3:6.7" class="sb-tbalken-s-600x20_svg__cls-1" d="M522.81 6.15h1.04v1.04h-1.04z"></path><path id="sb-tbalken-s-600x20_svg___x35_26.7:10" class="sb-tbalken-s-600x20_svg__cls-1" d="M526.19 9.52h.96v.96h-.96z"></path><path id="sb-tbalken-s-600x20_svg___x35_23.3:13.3" class="sb-tbalken-s-600x20_svg__cls-1" d="M522.81 12.81h1.04v1.04h-1.04z"></path><path id="sb-tbalken-s-600x20_svg___x35_26.7:16.7" class="sb-tbalken-s-600x20_svg__cls-1" d="M526.19 16.19h.96v.96h-.96z"></path><path id="sb-tbalken-s-600x20_svg___x35_23.3:20" class="sb-tbalken-s-600x20_svg__cls-1" d="M522.81 19.48h1.04v1.04h-1.04z"></path><path id="sb-tbalken-s-600x20_svg___x35_30.0:0" class="sb-tbalken-s-600x20_svg__cls-1" d="M529.56-.44h.89v.89h-.89z"></path><path id="sb-tbalken-s-600x20_svg___x35_33.3:3.3" class="sb-tbalken-s-600x20_svg__cls-1" d="M532.93 2.93h.81v.81h-.81z"></path><path id="sb-tbalken-s-600x20_svg___x35_30.0:6.7" class="sb-tbalken-s-600x20_svg__cls-1" d="M529.56 6.22h.89v.89h-.89z"></path><path id="sb-tbalken-s-600x20_svg___x35_33.3:10" class="sb-tbalken-s-600x20_svg__cls-1" d="M532.93 9.59h.81v.81h-.81z"></path><path id="sb-tbalken-s-600x20_svg___x35_30.0:13.3" class="sb-tbalken-s-600x20_svg__cls-1" d="M529.56 12.89h.89v.89h-.89z"></path><path id="sb-tbalken-s-600x20_svg___x35_33.3:16.7" class="sb-tbalken-s-600x20_svg__cls-1" d="M532.93 16.26h.81v.81h-.81z"></path><path id="sb-tbalken-s-600x20_svg___x35_30.0:20" class="sb-tbalken-s-600x20_svg__cls-1" d="M529.56 19.56h.89v.89h-.89z"></path><path id="sb-tbalken-s-600x20_svg___x35_36.7:0" class="sb-tbalken-s-600x20_svg__cls-1" d="M536.3-.37h.74v.74h-.74z"></path><path id="sb-tbalken-s-600x20_svg___x35_40.0:3.3" class="sb-tbalken-s-600x20_svg__cls-1" d="M539.67 3h.67v.67h-.67z"></path><path id="sb-tbalken-s-600x20_svg___x35_36.7:6.7" class="sb-tbalken-s-600x20_svg__cls-1" d="M536.3 6.3h.74v.74h-.74z"></path><path id="sb-tbalken-s-600x20_svg___x35_40.0:10" class="sb-tbalken-s-600x20_svg__cls-1" d="M539.67 9.67h.67v.67h-.67z"></path><path id="sb-tbalken-s-600x20_svg___x35_36.7:13.3" class="sb-tbalken-s-600x20_svg__cls-1" d="M536.3 12.96h.74v.74h-.74z"></path><path id="sb-tbalken-s-600x20_svg___x35_40.0:16.7" class="sb-tbalken-s-600x20_svg__cls-1" d="M539.67 16.33h.67V17h-.67z"></path><path id="sb-tbalken-s-600x20_svg___x35_36.7:20" class="sb-tbalken-s-600x20_svg__cls-1" d="M536.3 19.63h.74v.74h-.74z"></path><path id="sb-tbalken-s-600x20_svg___x35_43.3:0" class="sb-tbalken-s-600x20_svg__cls-1" d="M543.04-.3h.59v.59h-.59z"></path><path id="sb-tbalken-s-600x20_svg___x35_46.7:3.3" class="sb-tbalken-s-600x20_svg__cls-1" d="M546.41 3.07h.52v.52h-.52z"></path><path id="sb-tbalken-s-600x20_svg___x35_43.3:6.7" class="sb-tbalken-s-600x20_svg__cls-1" d="M543.04 6.37h.59v.59h-.59z"></path><path id="sb-tbalken-s-600x20_svg___x35_46.7:10" class="sb-tbalken-s-600x20_svg__cls-1" d="M546.41 9.74h.52v.52h-.52z"></path><path id="sb-tbalken-s-600x20_svg___x35_43.3:13.3" class="sb-tbalken-s-600x20_svg__cls-1" d="M543.04 13.04h.59v.59h-.59z"></path><path id="sb-tbalken-s-600x20_svg___x35_46.7:16.7" class="sb-tbalken-s-600x20_svg__cls-1" d="M546.41 16.41h.52v.52h-.52z"></path><path id="sb-tbalken-s-600x20_svg___x35_43.3:20" class="sb-tbalken-s-600x20_svg__cls-1" d="M543.04 19.7h.59v.59h-.59z"></path><path id="sb-tbalken-s-600x20_svg___x35_50.0:0" class="sb-tbalken-s-600x20_svg__cls-1" d="M549.78-.22h.44v.44h-.44z"></path><path id="sb-tbalken-s-600x20_svg___x35_53.3:3.3" class="sb-tbalken-s-600x20_svg__cls-1" d="M553.15 3.15h.37v.37h-.37z"></path><path id="sb-tbalken-s-600x20_svg___x35_50.0:6.7" class="sb-tbalken-s-600x20_svg__cls-1" d="M549.78 6.44h.44v.44h-.44z"></path><path id="sb-tbalken-s-600x20_svg___x35_53.3:10" class="sb-tbalken-s-600x20_svg__cls-1" d="M553.15 9.81h.37v.37h-.37z"></path><path id="sb-tbalken-s-600x20_svg___x35_50.0:13.3" class="sb-tbalken-s-600x20_svg__cls-1" d="M549.78 13.11h.44v.44h-.44z"></path><path id="sb-tbalken-s-600x20_svg___x35_53.3:16.7" class="sb-tbalken-s-600x20_svg__cls-1" d="M553.15 16.48h.37v.37h-.37z"></path><path id="sb-tbalken-s-600x20_svg___x35_50.0:20" class="sb-tbalken-s-600x20_svg__cls-1" d="M549.78 19.78h.44v.44h-.44z"></path><path id="sb-tbalken-s-600x20_svg___x35_56.7:0" class="sb-tbalken-s-600x20_svg__cls-1" d="M556.52-.15h.3v.3h-.3z"></path><path id="sb-tbalken-s-600x20_svg___x35_60.0:3.3" class="sb-tbalken-s-600x20_svg__cls-1" d="M559.89 3.22h.22v.22h-.22z"></path><path id="sb-tbalken-s-600x20_svg___x35_56.7:6.7" class="sb-tbalken-s-600x20_svg__cls-1" d="M556.52 6.52h.3v.3h-.3z"></path><path id="sb-tbalken-s-600x20_svg___x35_60.0:10" class="sb-tbalken-s-600x20_svg__cls-1" d="M559.89 9.89h.22v.22h-.22z"></path><path id="sb-tbalken-s-600x20_svg___x35_56.7:13.3" class="sb-tbalken-s-600x20_svg__cls-1" d="M556.52 13.19h.3v.3h-.3z"></path><path id="sb-tbalken-s-600x20_svg___x35_60.0:16.7" class="sb-tbalken-s-600x20_svg__cls-1" d="M559.89 16.56h.22v.22h-.22z"></path><path id="sb-tbalken-s-600x20_svg___x35_56.7:20" class="sb-tbalken-s-600x20_svg__cls-1" d="M556.52 19.85h.3v.3h-.3z"></path><path id="sb-tbalken-s-600x20_svg___x35_63.3:0" class="sb-tbalken-s-600x20_svg__cls-1" d="M563.26-.07h.15v.15h-.15z"></path><path id="sb-tbalken-s-600x20_svg___x35_66.7:3.3" class="sb-tbalken-s-600x20_svg__cls-1" d="M566.63 3.3h.07v.07h-.07z"></path><path id="sb-tbalken-s-600x20_svg___x35_63.3:6.7" class="sb-tbalken-s-600x20_svg__cls-1" d="M563.26 6.59h.15v.15h-.15z"></path><path id="sb-tbalken-s-600x20_svg___x35_66.7:10" class="sb-tbalken-s-600x20_svg__cls-1" d="M566.63 9.96h.07v.07h-.07z"></path><path id="sb-tbalken-s-600x20_svg___x35_63.3:13.3" class="sb-tbalken-s-600x20_svg__cls-1" d="M563.26 13.26h.15v.15h-.15z"></path><path id="sb-tbalken-s-600x20_svg___x35_66.7:16.7" class="sb-tbalken-s-600x20_svg__cls-1" d="M566.63 16.63h.07v.07h-.07z"></path><path id="sb-tbalken-s-600x20_svg___x35_63.3:20" class="sb-tbalken-s-600x20_svg__cls-1" d="M563.26 19.93h.15v.15h-.15z"></path><path class="sb-tbalken-s-600x20_svg__cls-1" d="M0 0h270v20H0z"></path></g></svg>