<svg fill="#000" width="24px" height="24px" viewBox="0 0 24 24" version="1.1" xmlns="http://www.w3.org/2000/svg" xmlns:xlink="http://www.w3.org/1999/xlink">
    <path d="M7.5,2 C7.776,2 8,2.22301115 8,2.500025 L8,2.500025 L8,4.00010001 L16,4.00010001 L16,2.500025 C16,2.22301115 16.223,2 16.5,2 L16.5,2 L17.5,2 C17.776,2 18,2.22301115 18,2.500025 L18,2.500025 L18,4.00010001 L21.5,4.00010001 C21.776,4.00010001 22,4.22311116 22,4.50012501 L22,4.50012501 L22,21.499975 C22,21.7759888 21.776,22 21.5,22 L21.5,22 L2.5,22 C2.223,22 2,21.7759888 2,21.499975 L2,21.499975 L2,4.50012501 C2,4.22311116 2.223,4.00010001 2.5,4.00010001 L2.5,4.00010001 L6,4.00010001 L6,2.500025 C6,2.22301115 6.223,2 6.5,2 L6.5,2 Z M20,5.99919996 L4,5.99919996 L4,20.0009 L20,20.0009 L20,5.99919996 Z M7.4998,16.0005 C7.7758,16.0005 7.9998,16.2245112 7.9998,16.500525 L7.9998,16.500525 L7.9998,17.500575 C7.9998,17.7765888 7.7758,18.0006 7.4998,18.0006 L7.4998,18.0006 L6.4998,18.0006 C6.2238,18.0006 5.9998,17.7765888 5.9998,17.500575 L5.9998,17.500575 L5.9998,16.500525 C5.9998,16.2245112 6.2238,16.0005 6.4998,16.0005 L6.4998,16.0005 Z M12.4998,16.0005 C12.7758,16.0005 12.9998,16.2245112 12.9998,16.500525 L12.9998,16.500525 L12.9998,17.500575 C12.9998,17.7765888 12.7758,18.0006 12.4998,18.0006 L12.4998,18.0006 L11.4998,18.0006 C11.2238,18.0006 10.9998,17.7765888 10.9998,17.500575 L10.9998,17.500575 L10.9998,16.500525 C10.9998,16.2245112 11.2238,16.0005 11.4998,16.0005 L11.4998,16.0005 Z M17.4998,16.0005 C17.7758,16.0005 17.9998,16.2245112 17.9998,16.500525 L17.9998,16.500525 L17.9998,17.500575 C17.9998,17.7765888 17.7758,18.0006 17.4998,18.0006 L17.4998,18.0006 L16.4998,18.0006 C16.2238,18.0006 15.9998,17.7765888 15.9998,17.500575 L15.9998,17.500575 L15.9998,16.500525 C15.9998,16.2245112 16.2238,16.0005 16.4998,16.0005 L16.4998,16.0005 Z M7.4998,12.0003 C7.7758,12.0003 7.9998,12.2243112 7.9998,12.500325 L7.9998,12.500325 L7.9998,13.500375 C7.9998,13.7763888 7.7758,14.0004 7.4998,14.0004 L7.4998,14.0004 L6.4998,14.0004 C6.2238,14.0004 5.9998,13.7763888 5.9998,13.500375 L5.9998,13.500375 L5.9998,12.500325 C5.9998,12.2243112 6.2238,12.0003 6.4998,12.0003 L6.4998,12.0003 Z M12.4998,12.0003 C12.7758,12.0003 12.9998,12.2243112 12.9998,12.500325 L12.9998,12.500325 L12.9998,13.500375 C12.9998,13.7763888 12.7758,14.0004 12.4998,14.0004 L12.4998,14.0004 L11.4998,14.0004 C11.2238,14.0004 10.9998,13.7763888 10.9998,13.500375 L10.9998,13.500375 L10.9998,12.500325 C10.9998,12.2243112 11.2238,12.0003 11.4998,12.0003 L11.4998,12.0003 Z M17.4998,12.0003 C17.7758,12.0003 17.9998,12.2243112 17.9998,12.500325 L17.9998,12.500325 L17.9998,13.500375 C17.9998,13.7763888 17.7758,14.0004 17.4998,14.0004 L17.4998,14.0004 L16.4998,14.0004 C16.2238,14.0004 15.9998,13.7763888 15.9998,13.500375 L15.9998,13.500375 L15.9998,12.500325 C15.9998,12.2243112 16.2238,12.0003 16.4998,12.0003 L16.4998,12.0003 Z M7.4998,8.00010001 C7.7758,8.00010001 7.9998,8.22411121 7.9998,8.50012501 L7.9998,8.50012501 L7.9998,9.50017501 C7.9998,9.77618881 7.7758,10.0002 7.4998,10.0002 L7.4998,10.0002 L6.4998,10.0002 C6.2238,10.0002 5.9998,9.77618881 5.9998,9.50017501 L5.9998,9.50017501 L5.9998,8.50012501 C5.9998,8.22411121 6.2238,8.00010001 6.4998,8.00010001 L6.4998,8.00010001 Z M12.4998,8.00010001 C12.7758,8.00010001 12.9998,8.22411121 12.9998,8.50012501 L12.9998,8.50012501 L12.9998,9.50017501 C12.9998,9.77618881 12.7758,10.0002 12.4998,10.0002 L12.4998,10.0002 L11.4998,10.0002 C11.2238,10.0002 10.9998,9.77618881 10.9998,9.50017501 L10.9998,9.50017501 L10.9998,8.50012501 C10.9998,8.22411121 11.2238,8.00010001 11.4998,8.00010001 L11.4998,8.00010001 Z M17.4998,8.00010001 C17.7758,8.00010001 17.9998,8.22411121 17.9998,8.50012501 L17.9998,8.50012501 L17.9998,9.50017501 C17.9998,9.77618881 17.7758,10.0002 17.4998,10.0002 L17.4998,10.0002 L16.4998,10.0002 C16.2238,10.0002 15.9998,9.77618881 15.9998,9.50017501 L15.9998,9.50017501 L15.9998,8.50012501 C15.9998,8.22411121 16.2238,8.00010001 16.4998,8.00010001 L16.4998,8.00010001 Z"></path>
</svg>