<svg width="24px" height="24px" viewBox="0 0 24 24" version="1.1" xmlns="http://www.w3.org/2000/svg" xmlns:xlink="http://www.w3.org/1999/xlink">
    <!-- Generator: Sketch 61.2 (89653) - https://sketch.com -->
    <title>icon/plus</title>
    <desc>Created with Sketch.</desc>
    <g id="icon/plus" stroke="none" stroke-width="1" fill="none" fill-rule="evenodd">
        <path d="M19.5,11 L13,11 L13,4.5 C13,4.224 12.776,4 12.5,4 L11.5,4 C11.224,4 11,4.224 11,4.5 L11,11 L4.5,11 C4.224,11 4,11.224 4,11.5 L4,12.5 C4,12.776 4.224,13 4.5,13 L11,13 L11,19.5 C11,19.776 11.224,20 11.5,20 L12.5,20 C12.776,20 13,19.776 13,19.5 L13,13 L19.5,13 C19.776,13 20,12.776 20,12.5 L20,11.5 C20,11.224 19.776,11 19.5,11" fill="#000"></path>
    </g>
</svg>