<svg width="24px" height="24px" viewBox="0 0 24 24" version="1.1" xmlns="http://www.w3.org/2000/svg" xmlns:xlink="http://www.w3.org/1999/xlink">
    <!-- Generator: Sketch 61.2 (89653) - https://sketch.com -->
    <title>icon/lupe</title>
    <desc>Created with Sketch.</desc>
    <g id="icon/lupe" stroke="none" stroke-width="1" fill="none" fill-rule="evenodd">
        <path d="M3.999975,9.9999 C3.999975,6.69094136 6.69094136,3.999975 9.9999,3.999975 C13.3088586,3.999975 15.999825,6.69094136 15.999825,9.9999 C15.999825,13.3088586 13.3088586,15.999825 9.9999,15.999825 C6.69094136,15.999825 3.999975,13.3088586 3.999975,9.9999 M21.8537518,20.4387695 L16.3138211,14.8998388 C17.3668079,13.5448557 17.9998,11.8488769 17.9998,9.9999 C17.9998,5.58195523 14.4178448,2 9.9999,2 C5.58195523,2 2,5.58195523 2,9.9999 C2,14.4178448 5.58195523,17.9998 9.9999,17.9998 C11.8488769,17.9998 13.5458557,17.3668079 14.8998388,16.3138211 L20.4387695,21.8537518 C20.6347671,22.0487494 20.9507631,22.0487494 21.1457607,21.8537518 L21.8537518,21.1457607 C22.0487494,20.9507631 22.0487494,20.6347671 21.8537518,20.4387695" fill="#000"></path>
    </g>
</svg>