<svg xmlns="http://www.w3.org/2000/svg" viewBox="0 0 429 25">
    <defs>
        <clipPath id="sb-tbalken-xl-429x25_svg__clippath">
            <path class="sb-tbalken-xl-429x25_svg__cls-2" d="M0 0h429v25H0z"></path>
        </clipPath>
        <style>.sb-tbalken-xl-429x25_svg__cls-1 {
            fill: #005a8c
            }

            .sb-tbalken-xl-429x25_svg__cls-2 {
            fill: #b7f9aa
            }</style>
    </defs>
    <path class="sb-tbalken-xl-429x25_svg__cls-2" d="M0 0h429v25H0z"></path>
    <g style="clip-path: url(&quot;#sb-tbalken-xl-429x25_svg__clippath&quot;);">
        <path id="sb-tbalken-xl-429x25_svg___x31_93.0:0" class="sb-tbalken-xl-429x25_svg__cls-1"
              d="M188.88-4.17h8.33v8.33h-8.33z"></path>
        <path id="sb-tbalken-xl-429x25_svg___x31_97.2:4.2" class="sb-tbalken-xl-429x25_svg__cls-1"
              d="M193.13.08h8.17v8.17h-8.17z"></path>
        <path id="sb-tbalken-xl-429x25_svg___x31_93.0:8.3" class="sb-tbalken-xl-429x25_svg__cls-1"
              d="M188.88 4.17h8.33v8.33h-8.33z"></path>
        <path id="sb-tbalken-xl-429x25_svg___x31_97.2:12.5" class="sb-tbalken-xl-429x25_svg__cls-1"
              d="M193.13 8.41h8.17v8.17h-8.17z"></path>
        <path id="sb-tbalken-xl-429x25_svg___x31_93.0:16.7" class="sb-tbalken-xl-429x25_svg__cls-1"
              d="M188.88 12.5h8.33v8.33h-8.33z"></path>
        <path id="sb-tbalken-xl-429x25_svg___x31_97.2:20.8" class="sb-tbalken-xl-429x25_svg__cls-1"
              d="M193.13 16.75h8.17v8.17h-8.17z"></path>
        <path id="sb-tbalken-xl-429x25_svg___x31_93.0:25" class="sb-tbalken-xl-429x25_svg__cls-1"
              d="M188.88 20.83h8.33v8.33h-8.33z"></path>
        <path id="sb-tbalken-xl-429x25_svg___x32_01.4:0" class="sb-tbalken-xl-429x25_svg__cls-1"
              d="M197.38-4h8.01v8.01h-8.01z"></path>
        <path id="sb-tbalken-xl-429x25_svg___x32_05.5:4.2" class="sb-tbalken-xl-429x25_svg__cls-1"
              d="M201.63.24h7.85v7.85h-7.85z"></path>
        <path id="sb-tbalken-xl-429x25_svg___x32_01.4:8.3" class="sb-tbalken-xl-429x25_svg__cls-1"
              d="M197.38 4.33h8.01v8.01h-8.01z"></path>
        <path id="sb-tbalken-xl-429x25_svg___x32_05.5:12.5" class="sb-tbalken-xl-429x25_svg__cls-1"
              d="M201.63 8.58h7.85v7.85h-7.85z"></path>
        <path id="sb-tbalken-xl-429x25_svg___x32_01.4:16.7" class="sb-tbalken-xl-429x25_svg__cls-1"
              d="M197.38 12.66h8.01v8.01h-8.01z"></path>
        <path id="sb-tbalken-xl-429x25_svg___x32_05.5:20.8" class="sb-tbalken-xl-429x25_svg__cls-1"
              d="M201.63 16.91h7.85v7.85h-7.85z"></path>
        <path id="sb-tbalken-xl-429x25_svg___x32_01.4:25" class="sb-tbalken-xl-429x25_svg__cls-1"
              d="M197.38 21h8.01v8.01h-8.01z"></path>
        <path id="sb-tbalken-xl-429x25_svg___x32_09.7:0" class="sb-tbalken-xl-429x25_svg__cls-1"
              d="M205.87-3.84h7.69v7.69h-7.69z"></path>
        <path id="sb-tbalken-xl-429x25_svg___x32_13.9:4.2" class="sb-tbalken-xl-429x25_svg__cls-1"
              d="M210.12.4h7.52v7.52h-7.52z"></path>
        <path id="sb-tbalken-xl-429x25_svg___x32_09.7:8.3" class="sb-tbalken-xl-429x25_svg__cls-1"
              d="M205.87 4.49h7.69v7.69h-7.69z"></path>
        <path id="sb-tbalken-xl-429x25_svg___x32_13.9:12.5" class="sb-tbalken-xl-429x25_svg__cls-1"
              d="M210.12 8.74h7.52v7.52h-7.52z"></path>
        <path id="sb-tbalken-xl-429x25_svg___x32_09.7:16.7" class="sb-tbalken-xl-429x25_svg__cls-1"
              d="M205.87 12.82h7.69v7.69h-7.69z"></path>
        <path id="sb-tbalken-xl-429x25_svg___x32_13.9:20.8" class="sb-tbalken-xl-429x25_svg__cls-1"
              d="M210.12 17.07h7.52v7.52h-7.52z"></path>
        <path id="sb-tbalken-xl-429x25_svg___x32_09.7:25" class="sb-tbalken-xl-429x25_svg__cls-1"
              d="M205.87 21.16h7.69v7.69h-7.69z"></path>
        <path id="sb-tbalken-xl-429x25_svg___x32_18.0:0" class="sb-tbalken-xl-429x25_svg__cls-1"
              d="M214.37-3.68h7.36v7.36h-7.36z"></path>
        <path id="sb-tbalken-xl-429x25_svg___x32_22.2:4.2" class="sb-tbalken-xl-429x25_svg__cls-1"
              d="M218.62.57h7.2v7.2h-7.2z"></path>
        <path id="sb-tbalken-xl-429x25_svg___x32_18.0:8.3" class="sb-tbalken-xl-429x25_svg__cls-1"
              d="M214.37 4.65h7.36v7.36h-7.36z"></path>
        <path id="sb-tbalken-xl-429x25_svg___x32_22.2:12.5" class="sb-tbalken-xl-429x25_svg__cls-1"
              d="M218.62 8.9h7.2v7.2h-7.2z"></path>
        <path id="sb-tbalken-xl-429x25_svg___x32_18.0:16.7" class="sb-tbalken-xl-429x25_svg__cls-1"
              d="M214.37 12.99h7.36v7.36h-7.36z"></path>
        <path id="sb-tbalken-xl-429x25_svg___x32_22.2:20.8" class="sb-tbalken-xl-429x25_svg__cls-1"
              d="M218.62 17.23h7.2v7.2h-7.2z"></path>
        <path id="sb-tbalken-xl-429x25_svg___x32_18.0:25" class="sb-tbalken-xl-429x25_svg__cls-1"
              d="M214.37 21.32h7.36v7.36h-7.36z"></path>
        <path id="sb-tbalken-xl-429x25_svg___x32_26.4:0" class="sb-tbalken-xl-429x25_svg__cls-1"
              d="M222.86-3.52h7.04v7.04h-7.04z"></path>
        <path id="sb-tbalken-xl-429x25_svg___x32_30.5:4.2" class="sb-tbalken-xl-429x25_svg__cls-1"
              d="M227.11.73h6.88v6.88h-6.88z"></path>
        <path id="sb-tbalken-xl-429x25_svg___x32_26.4:8.3" class="sb-tbalken-xl-429x25_svg__cls-1"
              d="M222.86 4.81h7.04v7.04h-7.04z"></path>
        <path id="sb-tbalken-xl-429x25_svg___x32_30.5:12.5" class="sb-tbalken-xl-429x25_svg__cls-1"
              d="M227.11 9.06h6.88v6.88h-6.88z"></path>
        <path id="sb-tbalken-xl-429x25_svg___x32_26.4:16.7" class="sb-tbalken-xl-429x25_svg__cls-1"
              d="M222.86 13.15h7.04v7.04h-7.04z"></path>
        <path id="sb-tbalken-xl-429x25_svg___x32_30.5:20.8" class="sb-tbalken-xl-429x25_svg__cls-1"
              d="M227.11 17.4h6.88v6.88h-6.88z"></path>
        <path id="sb-tbalken-xl-429x25_svg___x32_26.4:25" class="sb-tbalken-xl-429x25_svg__cls-1"
              d="M222.86 21.48h7.04v7.04h-7.04z"></path>
        <path id="sb-tbalken-xl-429x25_svg___x32_34.7:0" class="sb-tbalken-xl-429x25_svg__cls-1"
              d="M231.36-3.36h6.71v6.71h-6.71z"></path>
        <path id="sb-tbalken-xl-429x25_svg___x32_38.9:4.2" class="sb-tbalken-xl-429x25_svg__cls-1"
              d="M235.61.89h6.55v6.55h-6.55z"></path>
        <path id="sb-tbalken-xl-429x25_svg___x32_34.7:8.3" class="sb-tbalken-xl-429x25_svg__cls-1"
              d="M231.36 4.98h6.71v6.71h-6.71z"></path>
        <path id="sb-tbalken-xl-429x25_svg___x32_38.9:12.5" class="sb-tbalken-xl-429x25_svg__cls-1"
              d="M235.61 9.22h6.55v6.55h-6.55z"></path>
        <path id="sb-tbalken-xl-429x25_svg___x32_34.7:16.7" class="sb-tbalken-xl-429x25_svg__cls-1"
              d="M231.36 13.31h6.71v6.71h-6.71z"></path>
        <path id="sb-tbalken-xl-429x25_svg___x32_38.9:20.8" class="sb-tbalken-xl-429x25_svg__cls-1"
              d="M235.61 17.56h6.55v6.55h-6.55z"></path>
        <path id="sb-tbalken-xl-429x25_svg___x32_34.7:25" class="sb-tbalken-xl-429x25_svg__cls-1"
              d="M231.36 21.64h6.71v6.71h-6.71z"></path>
        <path id="sb-tbalken-xl-429x25_svg___x32_43.0:0" class="sb-tbalken-xl-429x25_svg__cls-1"
              d="M239.85-3.2h6.39v6.39h-6.39z"></path>
        <path id="sb-tbalken-xl-429x25_svg___x32_47.2:4.2" class="sb-tbalken-xl-429x25_svg__cls-1"
              d="M244.1 1.05h6.23v6.23h-6.23z"></path>
        <path id="sb-tbalken-xl-429x25_svg___x32_43.0:8.3" class="sb-tbalken-xl-429x25_svg__cls-1"
              d="M239.85 5.14h6.39v6.39h-6.39z"></path>
        <path id="sb-tbalken-xl-429x25_svg___x32_47.2:12.5" class="sb-tbalken-xl-429x25_svg__cls-1"
              d="M244.1 9.39h6.23v6.23h-6.23z"></path>
        <path id="sb-tbalken-xl-429x25_svg___x32_43.0:16.7" class="sb-tbalken-xl-429x25_svg__cls-1"
              d="M239.85 13.47h6.39v6.39h-6.39z"></path>
        <path id="sb-tbalken-xl-429x25_svg___x32_47.2:20.8" class="sb-tbalken-xl-429x25_svg__cls-1"
              d="M244.1 17.72h6.23v6.23h-6.23z"></path>
        <path id="sb-tbalken-xl-429x25_svg___x32_43.0:25" class="sb-tbalken-xl-429x25_svg__cls-1"
              d="M239.85 21.8h6.39v6.39h-6.39z"></path>
        <path id="sb-tbalken-xl-429x25_svg___x32_51.4:0" class="sb-tbalken-xl-429x25_svg__cls-1"
              d="M248.35-3.03h6.07v6.07h-6.07z"></path>
        <path id="sb-tbalken-xl-429x25_svg___x32_55.5:4.2" class="sb-tbalken-xl-429x25_svg__cls-1"
              d="M252.6 1.21h5.91v5.91h-5.91z"></path>
        <path id="sb-tbalken-xl-429x25_svg___x32_51.4:8.3" class="sb-tbalken-xl-429x25_svg__cls-1"
              d="M248.35 5.3h6.07v6.07h-6.07z"></path>
        <path id="sb-tbalken-xl-429x25_svg___x32_55.5:12.5" class="sb-tbalken-xl-429x25_svg__cls-1"
              d="M252.6 9.55h5.91v5.91h-5.91z"></path>
        <path id="sb-tbalken-xl-429x25_svg___x32_51.4:16.7" class="sb-tbalken-xl-429x25_svg__cls-1"
              d="M248.35 13.63h6.07v6.07h-6.07z"></path>
        <path id="sb-tbalken-xl-429x25_svg___x32_55.5:20.8" class="sb-tbalken-xl-429x25_svg__cls-1"
              d="M252.6 17.88h5.91v5.91h-5.91z"></path>
        <path id="sb-tbalken-xl-429x25_svg___x32_51.4:25" class="sb-tbalken-xl-429x25_svg__cls-1"
              d="M248.35 21.97h6.07v6.07h-6.07z"></path>
        <path id="sb-tbalken-xl-429x25_svg___x32_59.7:0" class="sb-tbalken-xl-429x25_svg__cls-1"
              d="M256.85-2.87h5.74v5.74h-5.74z"></path>
        <path id="sb-tbalken-xl-429x25_svg___x32_63.9:4.2" class="sb-tbalken-xl-429x25_svg__cls-1"
              d="M261.09 1.38h5.58v5.58h-5.58z"></path>
        <path id="sb-tbalken-xl-429x25_svg___x32_59.7:8.3" class="sb-tbalken-xl-429x25_svg__cls-1"
              d="M256.85 5.46h5.74v5.74h-5.74z"></path>
        <path id="sb-tbalken-xl-429x25_svg___x32_63.9:12.5" class="sb-tbalken-xl-429x25_svg__cls-1"
              d="M261.09 9.71h5.58v5.58h-5.58z"></path>
        <path id="sb-tbalken-xl-429x25_svg___x32_59.7:16.7" class="sb-tbalken-xl-429x25_svg__cls-1"
              d="M256.85 13.8h5.74v5.74h-5.74z"></path>
        <path id="sb-tbalken-xl-429x25_svg___x32_63.9:20.8" class="sb-tbalken-xl-429x25_svg__cls-1"
              d="M261.09 18.04h5.58v5.58h-5.58z"></path>
        <path id="sb-tbalken-xl-429x25_svg___x32_59.7:25" class="sb-tbalken-xl-429x25_svg__cls-1"
              d="M256.85 22.13h5.74v5.74h-5.74z"></path>
        <path id="sb-tbalken-xl-429x25_svg___x32_68.0:0" class="sb-tbalken-xl-429x25_svg__cls-1"
              d="M265.34-2.71h5.42v5.42h-5.42z"></path>
        <path id="sb-tbalken-xl-429x25_svg___x32_72.2:4.2" class="sb-tbalken-xl-429x25_svg__cls-1"
              d="M269.59 1.54h5.26V6.8h-5.26z"></path>
        <path id="sb-tbalken-xl-429x25_svg___x32_68.0:8.3" class="sb-tbalken-xl-429x25_svg__cls-1"
              d="M265.34 5.62h5.42v5.42h-5.42z"></path>
        <path id="sb-tbalken-xl-429x25_svg___x32_72.2:12.5" class="sb-tbalken-xl-429x25_svg__cls-1"
              d="M269.59 9.87h5.26v5.26h-5.26z"></path>
        <path id="sb-tbalken-xl-429x25_svg___x32_68.0:16.7" class="sb-tbalken-xl-429x25_svg__cls-1"
              d="M265.34 13.96h5.42v5.42h-5.42z"></path>
        <path id="sb-tbalken-xl-429x25_svg___x32_72.2:20.8" class="sb-tbalken-xl-429x25_svg__cls-1"
              d="M269.59 18.2h5.26v5.26h-5.26z"></path>
        <path id="sb-tbalken-xl-429x25_svg___x32_68.0:25" class="sb-tbalken-xl-429x25_svg__cls-1"
              d="M265.34 22.29h5.42v5.42h-5.42z"></path>
        <path id="sb-tbalken-xl-429x25_svg___x32_76.4:0" class="sb-tbalken-xl-429x25_svg__cls-1"
              d="M273.84-2.55h5.1v5.1h-5.1z"></path>
        <path id="sb-tbalken-xl-429x25_svg___x32_80.6:4.2" class="sb-tbalken-xl-429x25_svg__cls-1"
              d="M278.08 1.7h4.93v4.93h-4.93z"></path>
        <path id="sb-tbalken-xl-429x25_svg___x32_76.4:8.3" class="sb-tbalken-xl-429x25_svg__cls-1"
              d="M273.84 5.79h5.1v5.1h-5.1z"></path>
        <path id="sb-tbalken-xl-429x25_svg___x32_80.6:12.5" class="sb-tbalken-xl-429x25_svg__cls-1"
              d="M278.08 10.03h4.93v4.93h-4.93z"></path>
        <path id="sb-tbalken-xl-429x25_svg___x32_76.4:16.7" class="sb-tbalken-xl-429x25_svg__cls-1"
              d="M273.84 14.12h5.1v5.1h-5.1z"></path>
        <path id="sb-tbalken-xl-429x25_svg___x32_80.6:20.8" class="sb-tbalken-xl-429x25_svg__cls-1"
              d="M278.08 18.37h4.93v4.93h-4.93z"></path>
        <path id="sb-tbalken-xl-429x25_svg___x32_76.4:25" class="sb-tbalken-xl-429x25_svg__cls-1"
              d="M273.84 22.45h5.1v5.1h-5.1z"></path>
        <path id="sb-tbalken-xl-429x25_svg___x32_84.7:0" class="sb-tbalken-xl-429x25_svg__cls-1"
              d="M282.33-2.39h4.77v4.77h-4.77z"></path>
        <path id="sb-tbalken-xl-429x25_svg___x32_88.9:4.2" class="sb-tbalken-xl-429x25_svg__cls-1"
              d="M286.58 1.86h4.61v4.61h-4.61z"></path>
        <path id="sb-tbalken-xl-429x25_svg___x32_84.7:8.3" class="sb-tbalken-xl-429x25_svg__cls-1"
              d="M282.33 5.95h4.77v4.77h-4.77z"></path>
        <path id="sb-tbalken-xl-429x25_svg___x32_88.9:12.5" class="sb-tbalken-xl-429x25_svg__cls-1"
              d="M286.58 10.19h4.61v4.61h-4.61z"></path>
        <path id="sb-tbalken-xl-429x25_svg___x32_84.7:16.7" class="sb-tbalken-xl-429x25_svg__cls-1"
              d="M282.33 14.28h4.77v4.77h-4.77z"></path>
        <path id="sb-tbalken-xl-429x25_svg___x32_88.9:20.8" class="sb-tbalken-xl-429x25_svg__cls-1"
              d="M286.58 18.53h4.61v4.61h-4.61z"></path>
        <path id="sb-tbalken-xl-429x25_svg___x32_84.7:25" class="sb-tbalken-xl-429x25_svg__cls-1"
              d="M282.33 22.61h4.77v4.77h-4.77z"></path>
        <path id="sb-tbalken-xl-429x25_svg___x32_93.0:0" class="sb-tbalken-xl-429x25_svg__cls-1"
              d="M290.83-2.22h4.45v4.45h-4.45z"></path>
        <path id="sb-tbalken-xl-429x25_svg___x32_97.2:4.2" class="sb-tbalken-xl-429x25_svg__cls-1"
              d="M295.07 2.02h4.29v4.29h-4.29z"></path>
        <path id="sb-tbalken-xl-429x25_svg___x32_93.0:8.3" class="sb-tbalken-xl-429x25_svg__cls-1"
              d="M290.83 6.11h4.45v4.45h-4.45z"></path>
        <path id="sb-tbalken-xl-429x25_svg___x32_97.2:12.5" class="sb-tbalken-xl-429x25_svg__cls-1"
              d="M295.07 10.36h4.29v4.29h-4.29z"></path>
        <path id="sb-tbalken-xl-429x25_svg___x32_93.0:16.7" class="sb-tbalken-xl-429x25_svg__cls-1"
              d="M290.83 14.44h4.45v4.45h-4.45z"></path>
        <path id="sb-tbalken-xl-429x25_svg___x32_97.2:20.8" class="sb-tbalken-xl-429x25_svg__cls-1"
              d="M295.07 18.69h4.29v4.29h-4.29z"></path>
        <path id="sb-tbalken-xl-429x25_svg___x32_93.0:25" class="sb-tbalken-xl-429x25_svg__cls-1"
              d="M290.83 22.78h4.45v4.45h-4.45z"></path>
        <path id="sb-tbalken-xl-429x25_svg___x33_01.4:0" class="sb-tbalken-xl-429x25_svg__cls-1"
              d="M299.32-2.06h4.12v4.12h-4.12z"></path>
        <path id="sb-tbalken-xl-429x25_svg___x33_05.6:4.2" class="sb-tbalken-xl-429x25_svg__cls-1"
              d="M303.57 2.19h3.96v3.96h-3.96z"></path>
        <path id="sb-tbalken-xl-429x25_svg___x33_01.4:8.3" class="sb-tbalken-xl-429x25_svg__cls-1"
              d="M299.32 6.27h4.12v4.12h-4.12z"></path>
        <path id="sb-tbalken-xl-429x25_svg___x33_05.6:12.5" class="sb-tbalken-xl-429x25_svg__cls-1"
              d="M303.57 10.52h3.96v3.96h-3.96z"></path>
        <path id="sb-tbalken-xl-429x25_svg___x33_01.4:16.7" class="sb-tbalken-xl-429x25_svg__cls-1"
              d="M299.32 14.6h4.12v4.12h-4.12z"></path>
        <path id="sb-tbalken-xl-429x25_svg___x33_05.6:20.8" class="sb-tbalken-xl-429x25_svg__cls-1"
              d="M303.57 18.85h3.96v3.96h-3.96z"></path>
        <path id="sb-tbalken-xl-429x25_svg___x33_01.4:25" class="sb-tbalken-xl-429x25_svg__cls-1"
              d="M299.32 22.94h4.12v4.12h-4.12z"></path>
        <path id="sb-tbalken-xl-429x25_svg___x33_09.7:0" class="sb-tbalken-xl-429x25_svg__cls-1"
              d="M307.82-1.9h3.8v3.8h-3.8z"></path>
        <path id="sb-tbalken-xl-429x25_svg___x33_13.9:4.2" class="sb-tbalken-xl-429x25_svg__cls-1"
              d="M312.06 2.35h3.64v3.64h-3.64z"></path>
        <path id="sb-tbalken-xl-429x25_svg___x33_09.7:8.3" class="sb-tbalken-xl-429x25_svg__cls-1"
              d="M307.82 6.43h3.8v3.8h-3.8z"></path>
        <path id="sb-tbalken-xl-429x25_svg___x33_13.9:12.5" class="sb-tbalken-xl-429x25_svg__cls-1"
              d="M312.06 10.68h3.64v3.64h-3.64z"></path>
        <path id="sb-tbalken-xl-429x25_svg___x33_09.7:16.7" class="sb-tbalken-xl-429x25_svg__cls-1"
              d="M307.82 14.77h3.8v3.8h-3.8z"></path>
        <path id="sb-tbalken-xl-429x25_svg___x33_13.9:20.8" class="sb-tbalken-xl-429x25_svg__cls-1"
              d="M312.06 19.01h3.64v3.64h-3.64z"></path>
        <path id="sb-tbalken-xl-429x25_svg___x33_09.7:25" class="sb-tbalken-xl-429x25_svg__cls-1"
              d="M307.82 23.1h3.8v3.8h-3.8z"></path>
        <path id="sb-tbalken-xl-429x25_svg___x33_18.1:0" class="sb-tbalken-xl-429x25_svg__cls-1"
              d="M316.31-1.74h3.48v3.48h-3.48z"></path>
        <path id="sb-tbalken-xl-429x25_svg___x33_22.2:4.2" class="sb-tbalken-xl-429x25_svg__cls-1"
              d="M320.56 2.51h3.32v3.32h-3.32z"></path>
        <path id="sb-tbalken-xl-429x25_svg___x33_18.1:8.3" class="sb-tbalken-xl-429x25_svg__cls-1"
              d="M316.31 6.59h3.48v3.48h-3.48z"></path>
        <path id="sb-tbalken-xl-429x25_svg___x33_22.2:12.5" class="sb-tbalken-xl-429x25_svg__cls-1"
              d="M320.56 10.84h3.32v3.32h-3.32z"></path>
        <path id="sb-tbalken-xl-429x25_svg___x33_18.1:16.7" class="sb-tbalken-xl-429x25_svg__cls-1"
              d="M316.31 14.93h3.48v3.48h-3.48z"></path>
        <path id="sb-tbalken-xl-429x25_svg___x33_22.2:20.8" class="sb-tbalken-xl-429x25_svg__cls-1"
              d="M320.56 19.18h3.32v3.32h-3.32z"></path>
        <path id="sb-tbalken-xl-429x25_svg___x33_18.1:25" class="sb-tbalken-xl-429x25_svg__cls-1"
              d="M316.31 23.26h3.48v3.48h-3.48z"></path>
        <path id="sb-tbalken-xl-429x25_svg___x33_26.4:0" class="sb-tbalken-xl-429x25_svg__cls-1"
              d="M324.81-1.58h3.15v3.15h-3.15z"></path>
        <path id="sb-tbalken-xl-429x25_svg___x33_30.5:4.2" class="sb-tbalken-xl-429x25_svg__cls-1"
              d="M329.05 2.67h2.99v2.99h-2.99z"></path>
        <path id="sb-tbalken-xl-429x25_svg___x33_26.4:8.3" class="sb-tbalken-xl-429x25_svg__cls-1"
              d="M324.81 6.76h3.15v3.15h-3.15z"></path>
        <path id="sb-tbalken-xl-429x25_svg___x33_30.5:12.5" class="sb-tbalken-xl-429x25_svg__cls-1"
              d="M329.05 11h2.99v2.99h-2.99z"></path>
        <path id="sb-tbalken-xl-429x25_svg___x33_26.4:16.7" class="sb-tbalken-xl-429x25_svg__cls-1"
              d="M324.81 15.09h3.15v3.15h-3.15z"></path>
        <path id="sb-tbalken-xl-429x25_svg___x33_30.5:20.8" class="sb-tbalken-xl-429x25_svg__cls-1"
              d="M329.05 19.34h2.99v2.99h-2.99z"></path>
        <path id="sb-tbalken-xl-429x25_svg___x33_26.4:25" class="sb-tbalken-xl-429x25_svg__cls-1"
              d="M324.81 23.42h3.15v3.15h-3.15z"></path>
        <path id="sb-tbalken-xl-429x25_svg___x33_34.7:0" class="sb-tbalken-xl-429x25_svg__cls-1"
              d="M333.3-1.41h2.83v2.83h-2.83z"></path>
        <path id="sb-tbalken-xl-429x25_svg___x33_38.9:4.2" class="sb-tbalken-xl-429x25_svg__cls-1"
              d="M337.55 2.83h2.67V5.5h-2.67z"></path>
        <path id="sb-tbalken-xl-429x25_svg___x33_34.7:8.3" class="sb-tbalken-xl-429x25_svg__cls-1"
              d="M333.3 6.92h2.83v2.83h-2.83z"></path>
        <path id="sb-tbalken-xl-429x25_svg___x33_38.9:12.5" class="sb-tbalken-xl-429x25_svg__cls-1"
              d="M337.55 11.17h2.67v2.67h-2.67z"></path>
        <path id="sb-tbalken-xl-429x25_svg___x33_34.7:16.7" class="sb-tbalken-xl-429x25_svg__cls-1"
              d="M333.3 15.25h2.83v2.83h-2.83z"></path>
        <path id="sb-tbalken-xl-429x25_svg___x33_38.9:20.8" class="sb-tbalken-xl-429x25_svg__cls-1"
              d="M337.55 19.5h2.67v2.67h-2.67z"></path>
        <path id="sb-tbalken-xl-429x25_svg___x33_34.7:25" class="sb-tbalken-xl-429x25_svg__cls-1"
              d="M333.3 23.59h2.83v2.83h-2.83z"></path>
        <path id="sb-tbalken-xl-429x25_svg___x33_43.0:0" class="sb-tbalken-xl-429x25_svg__cls-1"
              d="M341.8-1.25h2.51v2.51h-2.51z"></path>
        <path id="sb-tbalken-xl-429x25_svg___x33_47.2:4.2" class="sb-tbalken-xl-429x25_svg__cls-1"
              d="M346.04 2.99h2.34v2.34h-2.34z"></path>
        <path id="sb-tbalken-xl-429x25_svg___x33_43.0:8.3" class="sb-tbalken-xl-429x25_svg__cls-1"
              d="M341.8 7.08h2.51v2.51h-2.51z"></path>
        <path id="sb-tbalken-xl-429x25_svg___x33_47.2:12.5" class="sb-tbalken-xl-429x25_svg__cls-1"
              d="M346.04 11.33h2.34v2.34h-2.34z"></path>
        <path id="sb-tbalken-xl-429x25_svg___x33_43.0:16.7" class="sb-tbalken-xl-429x25_svg__cls-1"
              d="M341.8 15.41h2.51v2.51h-2.51z"></path>
        <path id="sb-tbalken-xl-429x25_svg___x33_47.2:20.8" class="sb-tbalken-xl-429x25_svg__cls-1"
              d="M346.04 19.66h2.34V22h-2.34z"></path>
        <path id="sb-tbalken-xl-429x25_svg___x33_43.0:25" class="sb-tbalken-xl-429x25_svg__cls-1"
              d="M341.8 23.75h2.51v2.51h-2.51z"></path>
        <path id="sb-tbalken-xl-429x25_svg___x33_51.4:0" class="sb-tbalken-xl-429x25_svg__cls-1"
              d="M350.29-1.09h2.18v2.18h-2.18z"></path>
        <path id="sb-tbalken-xl-429x25_svg___x33_55.5:4.2" class="sb-tbalken-xl-429x25_svg__cls-1"
              d="M354.54 3.16h2.02v2.02h-2.02z"></path>
        <path id="sb-tbalken-xl-429x25_svg___x33_51.4:8.3" class="sb-tbalken-xl-429x25_svg__cls-1"
              d="M350.29 7.24h2.18v2.18h-2.18z"></path>
        <path id="sb-tbalken-xl-429x25_svg___x33_55.5:12.5" class="sb-tbalken-xl-429x25_svg__cls-1"
              d="M354.54 11.49h2.02v2.02h-2.02z"></path>
        <path id="sb-tbalken-xl-429x25_svg___x33_51.4:16.7" class="sb-tbalken-xl-429x25_svg__cls-1"
              d="M350.29 15.58h2.18v2.18h-2.18z"></path>
        <path id="sb-tbalken-xl-429x25_svg___x33_55.5:20.8" class="sb-tbalken-xl-429x25_svg__cls-1"
              d="M354.54 19.82h2.02v2.02h-2.02z"></path>
        <path id="sb-tbalken-xl-429x25_svg___x33_51.4:25" class="sb-tbalken-xl-429x25_svg__cls-1"
              d="M350.29 23.91h2.18v2.18h-2.18z"></path>
        <path id="sb-tbalken-xl-429x25_svg___x33_59.7:0" class="sb-tbalken-xl-429x25_svg__cls-1"
              d="M358.79-.93h1.86V.93h-1.86z"></path>
        <path id="sb-tbalken-xl-429x25_svg___x33_63.9:4.2" class="sb-tbalken-xl-429x25_svg__cls-1"
              d="M363.04 3.32h1.7v1.7h-1.7z"></path>
        <path id="sb-tbalken-xl-429x25_svg___x33_59.7:8.3" class="sb-tbalken-xl-429x25_svg__cls-1"
              d="M358.79 7.4h1.86v1.86h-1.86z"></path>
        <path id="sb-tbalken-xl-429x25_svg___x33_63.9:12.5" class="sb-tbalken-xl-429x25_svg__cls-1"
              d="M363.04 11.65h1.7v1.7h-1.7z"></path>
        <path id="sb-tbalken-xl-429x25_svg___x33_59.7:16.7" class="sb-tbalken-xl-429x25_svg__cls-1"
              d="M358.79 15.74h1.86v1.86h-1.86z"></path>
        <path id="sb-tbalken-xl-429x25_svg___x33_63.9:20.8" class="sb-tbalken-xl-429x25_svg__cls-1"
              d="M363.04 19.99h1.7v1.7h-1.7z"></path>
        <path id="sb-tbalken-xl-429x25_svg___x33_59.7:25" class="sb-tbalken-xl-429x25_svg__cls-1"
              d="M358.79 24.07h1.86v1.86h-1.86z"></path>
        <path id="sb-tbalken-xl-429x25_svg___x33_68.0:0" class="sb-tbalken-xl-429x25_svg__cls-1"
              d="M367.28-.77h1.53V.76h-1.53z"></path>
        <path id="sb-tbalken-xl-429x25_svg___x33_72.2:4.2" class="sb-tbalken-xl-429x25_svg__cls-1"
              d="M371.53 3.48h1.37v1.37h-1.37z"></path>
        <path id="sb-tbalken-xl-429x25_svg___x33_68.0:8.3" class="sb-tbalken-xl-429x25_svg__cls-1"
              d="M367.28 7.57h1.53V9.1h-1.53z"></path>
        <path id="sb-tbalken-xl-429x25_svg___x33_72.2:12.5" class="sb-tbalken-xl-429x25_svg__cls-1"
              d="M371.53 11.81h1.37v1.37h-1.37z"></path>
        <path id="sb-tbalken-xl-429x25_svg___x33_68.0:16.7" class="sb-tbalken-xl-429x25_svg__cls-1"
              d="M367.28 15.9h1.53v1.53h-1.53z"></path>
        <path id="sb-tbalken-xl-429x25_svg___x33_72.2:20.8" class="sb-tbalken-xl-429x25_svg__cls-1"
              d="M371.53 20.15h1.37v1.37h-1.37z"></path>
        <path id="sb-tbalken-xl-429x25_svg___x33_68.0:25" class="sb-tbalken-xl-429x25_svg__cls-1"
              d="M367.28 24.23h1.53v1.53h-1.53z"></path>
        <path id="sb-tbalken-xl-429x25_svg___x33_76.4:0" class="sb-tbalken-xl-429x25_svg__cls-1"
              d="M375.78-.61h1.21V.6h-1.21z"></path>
        <path id="sb-tbalken-xl-429x25_svg___x33_80.5:4.2" class="sb-tbalken-xl-429x25_svg__cls-1"
              d="M380.03 3.64h1.05v1.05h-1.05z"></path>
        <path id="sb-tbalken-xl-429x25_svg___x33_76.4:8.3" class="sb-tbalken-xl-429x25_svg__cls-1"
              d="M375.78 7.73h1.21v1.21h-1.21z"></path>
        <path id="sb-tbalken-xl-429x25_svg___x33_80.5:12.5" class="sb-tbalken-xl-429x25_svg__cls-1"
              d="M380.03 11.98h1.05v1.05h-1.05z"></path>
        <path id="sb-tbalken-xl-429x25_svg___x33_76.4:16.7" class="sb-tbalken-xl-429x25_svg__cls-1"
              d="M375.78 16.06h1.21v1.21h-1.21z"></path>
        <path id="sb-tbalken-xl-429x25_svg___x33_80.5:20.8" class="sb-tbalken-xl-429x25_svg__cls-1"
              d="M380.03 20.31h1.05v1.05h-1.05z"></path>
        <path id="sb-tbalken-xl-429x25_svg___x33_76.4:25" class="sb-tbalken-xl-429x25_svg__cls-1"
              d="M375.78 24.39h1.21v1.21h-1.21z"></path>
        <path id="sb-tbalken-xl-429x25_svg___x33_84.7:0" class="sb-tbalken-xl-429x25_svg__cls-1"
              d="M384.27-.44h.89v.89h-.89z"></path>
        <path id="sb-tbalken-xl-429x25_svg___x33_88.9:4.2" class="sb-tbalken-xl-429x25_svg__cls-1"
              d="M388.52 3.8h.73v.73h-.73z"></path>
        <path id="sb-tbalken-xl-429x25_svg___x33_84.7:8.3" class="sb-tbalken-xl-429x25_svg__cls-1"
              d="M384.27 7.89h.89v.89h-.89z"></path>
        <path id="sb-tbalken-xl-429x25_svg___x33_88.9:12.5" class="sb-tbalken-xl-429x25_svg__cls-1"
              d="M388.52 12.14h.73v.73h-.73z"></path>
        <path id="sb-tbalken-xl-429x25_svg___x33_84.7:16.7" class="sb-tbalken-xl-429x25_svg__cls-1"
              d="M384.27 16.22h.89v.89h-.89z"></path>
        <path id="sb-tbalken-xl-429x25_svg___x33_88.9:20.8" class="sb-tbalken-xl-429x25_svg__cls-1"
              d="M388.52 20.47h.73v.73h-.73z"></path>
        <path id="sb-tbalken-xl-429x25_svg___x33_84.7:25" class="sb-tbalken-xl-429x25_svg__cls-1"
              d="M384.27 24.56h.89v.89h-.89z"></path>
        <path id="sb-tbalken-xl-429x25_svg___x33_93.0:0" class="sb-tbalken-xl-429x25_svg__cls-1"
              d="M392.77-.28h.56v.56h-.56z"></path>
        <path id="sb-tbalken-xl-429x25_svg___x33_97.2:4.2" class="sb-tbalken-xl-429x25_svg__cls-1"
              d="M397.02 3.97h.4v.4h-.4z"></path>
        <path id="sb-tbalken-xl-429x25_svg___x33_93.0:8.3" class="sb-tbalken-xl-429x25_svg__cls-1"
              d="M392.77 8.05h.56v.56h-.56z"></path>
        <path id="sb-tbalken-xl-429x25_svg___x33_97.2:12.5" class="sb-tbalken-xl-429x25_svg__cls-1"
              d="M397.02 12.3h.4v.4h-.4z"></path>
        <path id="sb-tbalken-xl-429x25_svg___x33_93.0:16.7" class="sb-tbalken-xl-429x25_svg__cls-1"
              d="M392.77 16.39h.56v.56h-.56z"></path>
        <path id="sb-tbalken-xl-429x25_svg___x33_97.2:20.8" class="sb-tbalken-xl-429x25_svg__cls-1"
              d="M397.02 20.63h.4v.4h-.4z"></path>
        <path id="sb-tbalken-xl-429x25_svg___x33_93.0:25" class="sb-tbalken-xl-429x25_svg__cls-1"
              d="M392.77 24.72h.56v.56h-.56z"></path>
        <path id="sb-tbalken-xl-429x25_svg___x34_01.4:0" class="sb-tbalken-xl-429x25_svg__cls-1"
              d="M401.26-.12h.24v.24h-.24z"></path>
        <path id="sb-tbalken-xl-429x25_svg___x34_05.5:4.2" class="sb-tbalken-xl-429x25_svg__cls-1"
              d="M405.51 4.13h.08v.08h-.08z"></path>
        <path id="sb-tbalken-xl-429x25_svg___x34_01.4:8.3" class="sb-tbalken-xl-429x25_svg__cls-1"
              d="M401.26 8.21h.24v.24h-.24z"></path>
        <path id="sb-tbalken-xl-429x25_svg___x34_05.5:12.5" class="sb-tbalken-xl-429x25_svg__cls-1"
              d="M405.51 12.46h.08v.08h-.08z"></path>
        <path id="sb-tbalken-xl-429x25_svg___x34_01.4:16.7" class="sb-tbalken-xl-429x25_svg__cls-1"
              d="M401.26 16.55h.24v.24h-.24z"></path>
        <path id="sb-tbalken-xl-429x25_svg___x34_05.5:20.8" class="sb-tbalken-xl-429x25_svg__cls-1"
              d="M405.51 20.79h.08v.08h-.08z"></path>
        <path id="sb-tbalken-xl-429x25_svg___x34_01.4:25" class="sb-tbalken-xl-429x25_svg__cls-1"
              d="M401.26 24.88h.24v.24h-.24z"></path>
        <path class="sb-tbalken-xl-429x25_svg__cls-1" d="M0 0h193.05v25H0z"></path>
    </g>
</svg>
