<svg fill="#000000" version="1.0" xmlns="http://www.w3.org/2000/svg" width="17" height="17" viewBox="0 0 300.000000 300.000000" preserveAspectRatio="xMidYMid " class="svg" style="width: 17px; height: 17px;">
    <g transform="translate(0.000000,300.000000) scale(0.100000,-0.100000)" stroke="none">
        <path class="node" id="node1" d="M2700 2989 c-27 -8 -172 -148 -617 -591 -533 -532 -584 -580 -600
-567 -10 8 -267 263 -572 567 -584 585 -593 592 -682 592 -111 0 -218 -106
-219 -216 0 -92 7 -101 593 -687 304 -303 558 -560 566 -570 13 -16 -36 -68
-566 -600 -536 -538 -581 -586 -593 -629 -38 -142 48 -275 186 -286 111 -9 91
-26 723 605 316 315 578 573 583 573 5 0 256 -247 558 -548 339 -340 562 -555
585 -566 75 -36 181 -19 243 38 69 62 87 192 38 266 -14 22 -269 282 -566 579
-297 297 -540 544 -540 549 0 5 251 261 558 568 307 308 571 577 588 598 26
36 29 47 29 116 0 67 -4 82 -28 118 -42 64 -97 96 -171 99 -33 1 -77 -3 -96
-8z"></path>
    </g>
    <g transform="translate(0.000000,300.000000) scale(0.100000,-0.100000)" stroke="none"></g>
</svg>