<?xml version="1.0" encoding="UTF-8"?>
<svg width="24px" height="24px" viewBox="0 0 24 24" version="1.1" xmlns="http://www.w3.org/2000/svg" xmlns:xlink="http://www.w3.org/1999/xlink">
    <!-- Generator: Sketch 61.2 (89653) - https://sketch.com -->
    <title>icon/mülleimer</title>
    <desc>Created with Sketch.</desc>
    <g id="icon/mülleimer" stroke="none" stroke-width="1" fill="none" fill-rule="evenodd">
        <path d="M7,20.0009 L17,20.0009 L17,8.00030002 L7,8.00030002 L7,20.0009 Z M10,6.00020001 L14,6.00020001 L14,3.9980999 L10,3.9980999 L10,6.00020001 Z M20.5,6.00020001 L16,6.00020001 L16,2.500025 C16,2.22301115 15.776,2 15.5,2 L8.5,2 C8.223,2 8,2.22301115 8,2.500025 L8,6.00020001 L3.5,6.00020001 C3.223,6.00020001 3,6.22321116 3,6.50022501 L3,7.50027501 C3,7.77628881 3.223,8.00030002 3.5,8.00030002 L5,8.00030002 L5,21.499975 C5,21.7759888 5.223,22 5.5,22 L18.5,22 C18.776,22 19,21.7759888 19,21.499975 L19,8.00030002 L20.5,8.00030002 C20.776,8.00030002 21,7.77628881 21,7.50027501 L21,6.50022501 C21,6.22321116 20.776,6.00020001 20.5,6.00020001 L20.5,6.00020001 Z" fill="#005A8C"></path>
    </g>
</svg>