<svg xmlns="http://www.w3.org/2000/svg" viewBox="0 0 24 24"><path fill="#005a8c" fill-rule="evenodd" d="M21.5 2c.28 0 .5.22.5.5v19c0 .28-.22.5-.5.5h-19c-.28 0-.5-.22-.5-.5v-6c0-.28.22-.5.5-.5h1c.28 0 .5.22.5.5V20h16V4H4v4.5c0 .28-.22.5-.5.5h-1c-.28 0-.5-.22-.5-.5v-6c0-.28.22-.5.5-.5zM10.82 6.15c.19-.19.51-.19.71 0l5.18 5.15c.19.2.29.45.29.7 0 .26-.1.51-.29.7l-5.18 5.15c-.19.19-.51.19-.71 0l-.67-.74c-.2-.2-.2-.51 0-.71l3.45-3.41H2.5c-.28 0-.5-.22-.5-.5v-.99c0-.28.22-.5.5-.5h11.1l-3.45-3.41c-.2-.2-.2-.51 0-.71l.67-.74z" style="fill:#fff"/></svg>