<?xml version="1.0" encoding="UTF-8"?>
<svg width="24px" height="24px" viewBox="0 0 24 24" version="1.1" xmlns="http://www.w3.org/2000/svg" xmlns:xlink="http://www.w3.org/1999/xlink">
    <title>01_Elemente (ATOME, MOLECULES)/Icons/Funktionsicons/menü-texthinweis-DE</title>
    <g id="01_Elemente-(ATOME,-MOLECULES)/Icons/Funktionsicons/menü-texthinweis-DE" stroke="none" stroke-width="1" fill="none" fill-rule="evenodd">
        <path d="M18.9572055,14.9627999 L18.9572055,17.9190374 C18.9572055,18.2683874 19.0400607,18.5248114 19.2057711,18.6883093 C19.3714049,18.8518838 19.6110443,18.9336455 19.9246891,18.9335945 C20.1764158,18.9459927 20.4231795,18.8605301 20.613318,18.6950992 C20.7857419,18.5361028 20.8719794,18.2774156 20.8720305,17.9190374 L20.865318,14.9627999 L21.8328016,14.9627999 L21.8260883,17.8854687 C21.8296004,18.1364574 21.7910733,18.3862635 21.7121039,18.6245312 C21.6414999,18.8353289 21.5219945,19.0264174 21.3633641,19.182164 C21.1934811,19.3424068 20.9893495,19.461875 20.7664406,19.531514 C20.4885757,19.617507 20.1987132,19.6583604 19.9079047,19.6525163 C19.6082547,19.6588708 19.3094709,19.6180373 19.0225141,19.531514 C18.797906,19.46349 18.5923321,19.3438506 18.4222336,19.182164 C18.2658072,19.0264896 18.1495781,18.8351151 18.0835617,18.6245312 C18.0090211,18.3853813 17.9727918,18.1359427 17.976218,17.8854687 L17.976218,14.9627999 L18.9572055,14.9627999 Z M3.38828125,14.9695187 L3.99222422,16.4678562 C4.03700859,16.5843572 4.08733724,16.7131158 4.14321016,16.854132 C4.19905703,16.9952778 4.25607396,17.1408466 4.31426094,17.2908382 C4.37239687,17.4409851 4.42829479,17.5876731 4.48195469,17.7309023 C4.53566562,17.8743341 4.58711328,18.0019992 4.63629766,18.1138976 L4.69008516,18.1138976 C4.79735391,17.8541929 4.9069112,17.5831968 5.01875703,17.3009093 C5.13052786,17.0187739 5.24013724,16.7455653 5.34758516,16.4812835 C5.39229401,16.3872132 5.44259714,16.2729757 5.49849453,16.138571 L5.58232266,15.9345035 L5.58232266,15.9345035 L5.66626484,15.7253632 C5.72211224,15.5842955 5.77803568,15.4465848 5.83403516,15.3122312 C5.88988255,15.1778015 5.9402112,15.063564 5.98502109,14.9695187 L7.16590156,14.9695187 L7.16590156,19.5852999 L6.20513125,19.5852999 L6.20513125,16.4678515 L6.18498984,16.4678515 L5.84906797,17.321046 C5.79077891,17.4510518 5.72694609,17.596646 5.65756953,17.7578288 C5.58806641,17.9190382 5.51863932,18.0813919 5.44928828,18.2448898 C5.37978411,18.4084643 5.31147682,18.5708432 5.24436641,18.7320265 C5.1771513,18.8932359 5.11443776,19.0388046 5.05622578,19.1687328 L4.24323281,19.1687328 C4.18502031,19.0343796 4.12233203,18.8843351 4.05516797,18.7185992 C3.98795339,18.5528882 3.91964609,18.3860333 3.85024609,18.2180343 C3.78074245,18.0500354 3.71131536,17.8842994 3.64196484,17.7208265 C3.57245755,17.5574025 3.50638594,17.408477 3.44375,17.2740499 L3.14811094,16.501421 L3.12796875,16.501421 L3.12712891,17.6276152 L3.12712891,17.6276152 L3.1219957,18.4590867 L3.1219957,18.4590867 L3.12125,19.5852999 L2.16719844,19.5852999 L2.16719844,14.9695187 L3.38828125,14.9695187 Z M11.6002578,14.9695187 L11.6002578,15.6750093 L9.41664922,15.6750093 L9.41664922,16.8373476 L11.2509078,16.8373476 L11.2509078,17.495764 L9.41664922,17.495764 L9.41664922,18.8798078 L11.6943281,18.8798078 L11.6943281,19.5852999 L8.41559609,19.5852999 L8.41559609,14.9695187 L11.6002578,14.9695187 Z M13.7636492,14.969514 C14.0047372,15.345801 14.2424945,15.7175815 14.4769211,16.0848601 C14.7112195,16.4522153 14.9467143,16.8262083 15.1834055,17.206839 L15.7659836,18.147464 L15.8061906,18.1474624 L15.8061906,14.969514 L16.7669602,14.969514 L16.7669602,19.5852999 L15.774757,19.5852999 L14.2127914,17.0994093 L14.0979684,16.9062136 L14.0979684,16.9062136 L13.981468,16.716414 C13.9032674,16.5910624 13.8261841,16.4633971 13.750218,16.3334179 C13.7444058,16.3326561 13.7385048,16.3338372 13.7334336,16.3367773 C13.7311445,16.3391421 13.725575,16.3401367 13.7166484,16.3401367 L13.7166484,19.5852999 L12.755882,19.5852999 L12.755882,14.969514 L13.7636492,14.969514 Z M19.2057727,13.8408218 C19.3347593,13.8314552 19.462364,13.872386 19.5618359,13.9550335 C19.6435862,14.0338378 19.6876395,14.1439017 19.6828383,14.2573484 C19.685072,14.3683782 19.6412749,14.4753855 19.5618359,14.5529874 C19.4838685,14.6224171 19.3860677,14.6642222 19.2834267,14.6733107 L19.2057727,14.6739132 C19.0796308,14.6836292 18.9552361,14.6397269 18.8631359,14.5529874 C18.7873646,14.4734875 18.7462809,14.3671416 18.7489242,14.2573484 C18.7452128,14.1457472 18.7877556,14.0375677 18.866493,13.9583906 C18.9589574,13.8748031 19.081414,13.8323689 19.2057727,13.8408218 Z M20.6234664,13.8408218 C20.7524517,13.8314685 20.8800518,13.8723977 20.9795305,13.9550335 C21.0612579,14.0338477 21.1052837,14.1439123 21.1004563,14.2573484 C21.1027177,14.3683682 21.0589478,14.4753768 20.9795305,14.5529874 C20.9015573,14.6224076 20.8037584,14.6642096 20.7011192,14.6733043 L20.6234664,14.6739132 C20.4994159,14.6828595 20.3773666,14.638934 20.287468,14.5529874 C20.2116966,14.4734875 20.1706129,14.3671416 20.1732563,14.2573484 C20.1695444,14.1457472 20.2120874,14.0375675 20.290825,13.9583906 C20.3810805,13.8755574 20.5012053,13.8331004 20.6234664,13.8408218 Z M21.5,9.9844402 C21.7450408,9.98414836 21.949096,10.1603939 21.991789,10.3931755 L22,10.4828843 L22,11.4797718 C21.9994693,11.7554424 21.7756709,11.9785443 21.5,11.9782159 L2.5,11.9782159 C2.25495851,11.9785074 2.05090322,11.8022609 2.0082107,11.5694786 L2,11.4797695 L2,10.482882 C2.00053239,10.2072124 2.22433015,9.98411231 2.5,9.9844402 L21.5,9.9844402 Z M21.5,5.00000036 C21.7450408,4.9997106 21.949096,5.17595638 21.991789,5.40873797 L22,5.49844682 L22,6.49533197 C21.9994698,6.77100278 21.7756711,6.99410485 21.5,6.99377609 L2.5,6.99377609 C2.25495916,6.99406793 2.05090405,6.81782239 2.00821096,6.58504081 L2,6.49533197 L2,5.49844447 C2.0005311,5.22277402 2.22432923,4.99967246 2.5,5.00000036 L21.5,5.00000036 Z" id="menue-texthinweis-DE" fill="#005A8C"></path>
    </g>
</svg>