<?xml version="1.0" encoding="UTF-8"?>
<svg width="24px" height="24px" viewBox="0 0 24 24" version="1.1" xmlns="http://www.w3.org/2000/svg" xmlns:xlink="http://www.w3.org/1999/xlink">
    <title>01_Elemente (ATOME, MOLECULES)/Icons/Funktionsicons/Positiv/spaeter_festlegen</title>
    <g id="01_Elemente-(ATOME,-MOLECULES)/Icons/Funktionsicons/Positiv/spaeter_festlegen" stroke="none" stroke-width="1" fill="none" fill-rule="evenodd">
        <path d="M12,2 C17.5,2 22,6.5 22,12 C22,17.5 17.5,22 12,22 C6.5,22 2,17.5 2,12 C2,6.5 6.5,2 12,2 Z M12,4 C7.6,4 4,7.6 4,12 C4,16.4 7.6,20 12,20 C16.4,20 20,16.4 20,12 C20,7.6 16.4,4 12,4 Z M12.4,7 C12.7,7 12.9,7.2 12.9,7.5 L12.9,7.5 L12.9,12.8 L15.5,15.4 C15.7,15.6 15.7,15.9 15.5,16.1 L15.5,16.1 L14.8,16.8 C14.6,17 14.3,17 14.1,16.8 L14.1,16.8 L10.9,13.6 L10.9,7.5 C10.9,7.2 11.1,7 11.4,7 L11.4,7 Z" id="Combined-Shape" fill="#005A8C"></path>
    </g>
</svg>