<svg width="24px" height="24px" viewBox="0 0 24 24" version="1.1" xmlns="http://www.w3.org/2000/svg" xmlns:xlink="http://www.w3.org/1999/xlink">
    <!-- Generator: Sketch 61.2 (89653) - https://sketch.com -->
    <title>icon/upload</title>
    <desc>Created with Sketch.</desc>
    <g id="icon/upload" stroke="none" stroke-width="1" fill="none" fill-rule="evenodd">
        <path d="M3.5,13.0006749 C3.776,13.0006749 4,13.2246582 4,13.5006375 L4,13.5006375 L4,20.00015 L20,20.00015 L20,13.5006375 C20,13.2246582 20.224,13.0006749 20.5,13.0006749 L20.5,13.0006749 L21.5,13.0006749 C21.776,13.0006749 22,13.2246582 22,13.5006375 L22,13.5006375 L22,21.5000375 C22,21.7760168 21.776,22 21.5,22 L21.5,22 L2.5,22 C2.224,22 2,21.7760168 2,21.5000375 L2,21.5000375 L2,13.5006375 C2,13.2246582 2.224,13.0006749 2.5,13.0006749 L2.5,13.0006749 Z M11.9998,2 C12.2548,2.00099993 12.5088,2.09799265 12.7028,2.2919781 L12.7028,2.2919781 L18.8538,8.47551434 C19.0488,8.67049971 19.0488,8.98747594 18.8538,9.18246132 L18.8538,9.18246132 L18.1178,9.85341099 C17.9228,10.0483964 17.6068,10.0483964 17.4108,9.85341099 L17.4108,9.85341099 L12.9958,5.40474464 L12.9998,16.4999125 C12.9998,16.7758918 12.7758,16.999875 12.4998,16.999875 L12.4998,16.999875 L11.4998,16.999875 C11.2238,16.999875 10.9998,16.7758918 10.9998,16.4999125 L10.9998,16.4999125 L11.0048,5.40474464 L6.5888,9.85341099 C6.3938,10.0483964 6.0768,10.0483964 5.8818,9.85341099 L5.8818,9.85341099 L5.1468,9.18246132 C4.9508,8.98747594 4.9508,8.67049971 5.1468,8.47551434 L5.1468,8.47551434 L11.2978,2.2919781 C11.4908,2.09799265 11.7458,2.00099993 11.9998,2 Z" fill="#005A8C"></path>
    </g>
</svg>